<?xml version="1.0" encoding="UTF-8"?>
<!-- Generator: Adobe Illustrator 22.0.1, SVG Export Plug-In . SVG Version: 6.00 Build 0)  -->
<svg version="1.1" id="Layer_1" xmlns="http://www.w3.org/2000/svg" xmlns:xlink="http://www.w3.org/1999/xlink" x="0px" y="0px" viewBox="0 0 400 400" style="enable-background:new 0 0 400 400;" xml:space="preserve">
<style type="text/css">
	.st0{fill:#FFFFFF;}
	.st1{fill:#BFBFBF;}
	.st2{fill:#FFFFFF;stroke:#6C75C4;stroke-width:2;stroke-miterlimit:10;}
	.st3{fill:#E8EAFD;}
	.st4{fill:none;stroke:#6C75C4;stroke-width:2;stroke-miterlimit:10;}
	.st5{fill:#191919;}
	.st6{fill:#2B2A2A;}
	.st7{fill:#3A3939;}
	.st8{fill:none;stroke:#3A3939;stroke-width:1.5;stroke-miterlimit:10;}
	.st9{fill:#B0B0B0;}
	.st10{fill:#FFFFFF;stroke:#E1E1E1;stroke-miterlimit:10;}
	.st11{fill:none;stroke:#BFBFBF;stroke-width:2;stroke-linecap:round;stroke-miterlimit:10;}
	.st12{fill:none;stroke:#FFFFFF;stroke-width:2;stroke-linecap:round;stroke-miterlimit:10;}
	.st13{fill:none;stroke:#BFBFBF;stroke-width:1.5;stroke-linecap:round;stroke-linejoin:round;stroke-miterlimit:10;}
	.st14{fill:none;stroke:#6C75C4;stroke-width:1.75;stroke-linecap:round;stroke-linejoin:round;stroke-miterlimit:10;}
	.st15{fill:#FFDA40;}
	.st16{fill:none;stroke:#CCCCCC;stroke-miterlimit:10;}
	.st17{fill:#CCCCCC;}
	.st18{fill:none;stroke:#BFBFBF;stroke-linecap:round;stroke-miterlimit:10;}
	.st19{fill:#FFFFFF;stroke:#DBDBDB;stroke-miterlimit:10;}
	.st20{fill:#6C75C4;}
	.st21{fill:none;stroke:#FF3333;stroke-width:3;stroke-linecap:square;stroke-miterlimit:10;}
	.st22{fill:none;stroke:#66CC33;stroke-width:3;stroke-linecap:square;stroke-miterlimit:10;}
	.st23{fill:none;stroke:#FFFFFF;stroke-width:1.5;stroke-miterlimit:10;}
	.st24{fill:none;stroke:#FFFFFF;stroke-width:1.7;stroke-linecap:round;stroke-linejoin:round;stroke-miterlimit:10;}
	.st25{fill:#FFFFFF;stroke:#6C75C4;stroke-width:2;stroke-linecap:round;stroke-linejoin:round;stroke-miterlimit:10;}
	.st26{fill:none;stroke:#6C75C4;stroke-width:2;stroke-linecap:round;stroke-linejoin:round;stroke-miterlimit:10;}
	.st27{fill:none;stroke:#6C75C4;stroke-width:1.7;stroke-linecap:round;stroke-linejoin:round;stroke-miterlimit:10;}
	.st28{fill:none;stroke:#6C75C4;stroke-width:1.7;stroke-linecap:round;stroke-miterlimit:10;}
	.st29{fill:#FFFFFF;stroke:#6C75C4;stroke-width:1.7;stroke-linecap:round;stroke-linejoin:round;stroke-miterlimit:10;}
	.st30{fill:#FFFFFF;stroke:#6C75C4;stroke-width:1.7;stroke-linecap:round;stroke-miterlimit:10;}
	.st31{fill:none;stroke:#FFFFFF;stroke-width:2;stroke-linecap:round;stroke-linejoin:round;stroke-miterlimit:10;}
	.st32{fill:#4954AC;}
	.st33{fill:none;stroke:#FFFFFF;stroke-linecap:round;stroke-linejoin:round;stroke-miterlimit:10;}
	.st34{fill:#3F3F3F;}
	.st35{fill:#AAAAAA;}
	.st36{fill:none;stroke:#FFFFFF;stroke-width:1.5;stroke-linecap:round;stroke-linejoin:round;stroke-miterlimit:10;}
	.st37{fill:none;stroke:#FFFFFF;stroke-width:1.5;stroke-linejoin:round;stroke-miterlimit:10;}
	.st38{fill:#DBDBDB;}
	.st39{fill:#E44054;}
	.st40{fill:none;stroke:#E44054;stroke-width:4;stroke-miterlimit:10;}
	.st41{fill:#20B555;}
	.st42{fill:none;stroke:#20B555;stroke-width:4;stroke-miterlimit:10;}
	.st43{fill:#EEAA17;}
	.st44{fill:none;stroke:#FFFFFF;stroke-width:2;stroke-miterlimit:10;}
</style>
<path class="st0" d="M299.3,9.1c0-1.5-1.2-2.8-2.8-2.8c-0.8,0-1.5,0.3-2,0.9c-0.9-0.4-1.9-0.7-3-0.8l1-3.1l1.2,0.5v0.1  c0,1,0.8,1.7,1.7,1.7s1.7-0.8,1.7-1.7s-0.8-1.7-1.7-1.7c-0.5,0-0.9,0.2-1.2,0.5l-2.4-1l-1.5,4.6l0,0c-1.6,0-3.1,0.3-4.3,0.9  c-0.5-0.5-1.2-0.9-2-0.9c-1.5,0-2.8,1.2-2.8,2.8c0,1,0.6,1.9,1.4,2.4v0.1c0,2.9,3.4,5.3,7.7,5.3s7.7-2.4,7.7-5.3v-0.1  C298.8,11,299.3,10.1,299.3,9.1z M286.7,11.9c-0.6,0-1.2-0.5-1.2-1.2c0-0.6,0.5-1.2,1.2-1.2c0.6,0,1.2,0.5,1.2,1.2  C287.9,11.3,287.4,11.9,286.7,11.9z M292.4,14c-0.6,0.6-1.4,0.9-2.2,0.9c-0.8,0-1.6-0.3-2.2-0.9c-0.2-0.2-0.2-0.5,0-0.6  c0.2-0.2,0.5-0.2,0.6,0c0.4,0.4,1,0.7,1.6,0.7s1.1-0.2,1.6-0.7c0.2-0.2,0.5-0.2,0.6,0C292.6,13.6,292.6,13.9,292.4,14z M293.8,11.9  c-0.6,0-1.2-0.5-1.2-1.2c0-0.6,0.5-1.2,1.2-1.2s1.2,0.5,1.2,1.2C295,11.3,294.4,11.9,293.8,11.9z"/>
<g>
	<g>
		<path class="st1" d="M268.8,75.9c-0.1-0.3-0.4-0.5-0.7-0.6c-0.6-0.2-1.2-0.3-1.8-0.3c-0.4,0-0.9,0.1-1.3,0    c-1.5-0.2,1.6-3.4-0.2-4.9c-0.2-0.2-0.6-0.1-0.7,0.2c-0.7,1.6-1.5,2.9-3,4.8c0,2,0,4,0.1,6c1.7,0.6,1.5,0.9,4.2,0.9    c0.7,0,1.5-0.1,2.1-0.4s0.8-1,1-1.6c0.2-0.7,0.3-1.4,0.5-2.2C269,77.2,269.1,76.5,268.8,75.9z"/>
	</g>
</g>
<path class="st0" d="M383.5,68.1c-2.2-1.6-4.3-1.6-4.3-1.6l-0.2,0.2c2.6,0.8,3.8,1.9,3.8,1.9c-1.6-0.9-3.2-1.3-4.6-1.5  c-1.1-0.1-2.2-0.1-3.1,0c-0.1,0-0.2,0-0.3,0c-0.5,0.1-1.8,0.2-3.5,1c-0.6,0.2-0.9,0.4-0.9,0.4s1.3-1.2,4-2l-0.2-0.2  c0,0-2.1,0-4.3,1.6c0,0-2.2,4-2.2,8.9c0,0,1.3,2.2,4.7,2.3c0,0,0.6-0.7,1-1.3c-1.9-0.6-2.7-1.8-2.7-1.8s0.2,0.1,0.4,0.3  c0,0,0,0,0.1,0c0,0,0.1,0,0.1,0.1c0.4,0.2,0.8,0.4,1.1,0.5c0.6,0.3,1.4,0.5,2.3,0.7c1.2,0.2,2.5,0.3,4,0c0.7-0.1,1.5-0.3,2.2-0.7  c0.5-0.2,1.1-0.5,1.8-0.9c0,0-0.8,1.2-2.8,1.8c0.5,0.6,1,1.2,1,1.2c3.4-0.1,4.7-2.3,4.7-2.3C385.7,72,383.5,68.1,383.5,68.1z   M373.9,75.5c-0.9,0-1.6-0.8-1.6-1.7c0-0.9,0.7-1.7,1.6-1.7s1.6,0.8,1.6,1.7S374.8,75.5,373.9,75.5z M379.5,75.5  c-0.9,0-1.6-0.8-1.6-1.7c0-0.9,0.7-1.7,1.6-1.7s1.6,0.8,1.6,1.7S380.4,75.5,379.5,75.5z"/>
<ellipse class="st2" cx="176.2" cy="240" rx="34.2" ry="13.4"/>
<ellipse class="st2" cx="176.2" cy="231.5" rx="34.2" ry="13.4"/>
<ellipse class="st2" cx="176.2" cy="223" rx="34.2" ry="13.4"/>
<ellipse class="st2" cx="176.2" cy="214.4" rx="34.2" ry="13.4"/>
<ellipse class="st3" cx="174.3" cy="213.8" rx="26.4" ry="7.9"/>
<circle class="st2" cx="207" cy="221.5" r="40"/>
<circle class="st2" cx="207" cy="221.5" r="34.9"/>
<circle class="st3" cx="207" cy="221.5" r="26.8"/>
<circle class="st4" cx="59.5" cy="222.3" r="40"/>
<circle class="st3" cx="59.5" cy="222.3" r="30.3"/>
<path class="st0" d="M381.6,37.2v-4.8c0-1.2-0.3-2-1.4-2c-0.9,0-1.6,0.6-1.9,1.1c-0.1,0.2-0.1,0.5-0.1,0.7v5h-3.4c0,0,0-8.4,0-9.2  h3.4v1.6l0,0l0,0l0,0c0.4-0.6,1.4-1.6,3.1-1.6c2.1,0,3.7,1.4,3.7,4.1v5.1C385,37.2,381.6,37.2,381.6,37.2z M370,27.9h3.4v9.3H370  V27.9z M371.7,26.6c-0.9,0-1.7-0.7-1.7-1.7c0-0.9,0.8-1.7,1.7-1.7c0.9,0,1.7,0.7,1.7,1.7C373.4,25.9,372.7,26.6,371.7,26.6z"/>
<path class="st0" d="M383.5,42c-3.3,0-6,2.7-6,6s6,10,6,10s6-6.6,6-10C389.5,44.7,386.8,42,383.5,42z M383.5,51.4c-1.7,0-3-1.3-3-3  s1.3-3,3-3s3,1.3,3,3C386.5,50.1,385.2,51.4,383.5,51.4z"/>
<g id="XMLID_1_">
	<path id="XMLID_2_" class="st0" d="M368.7,9.5l3.4,1.3l1.3,4.2c0.1,0.3,0.4,0.4,0.6,0.2l1.9-1.5c0.2-0.2,0.5-0.2,0.7,0l3.4,2.5   c0.2,0.2,0.6,0,0.6-0.2l2.5-12c0.1-0.3-0.2-0.6-0.5-0.5l-13.9,5.4C368.4,8.9,368.4,9.4,368.7,9.5z M373.2,10.1l6.6-4.1   c0.1-0.1,0.2,0.1,0.1,0.2l-5.5,5.1c-0.2,0.2-0.3,0.4-0.4,0.7l-0.2,1.4c0,0.2-0.3,0.2-0.3,0l-0.7-2.5   C372.8,10.5,372.9,10.2,373.2,10.1z"/>
</g>
<g id="XMLID_3_">
	<path id="XMLID_4_" class="st0" d="M332.2,29l3.4,1.3l1.3,4.2c0.1,0.3,0.4,0.4,0.6,0.2l1.9-1.5c0.2-0.2,0.5-0.2,0.7,0l3.4,2.5   c0.2,0.2,0.6,0,0.6-0.2l2.5-12c0.1-0.3-0.2-0.6-0.5-0.5l-13.9,5.4C331.9,28.4,331.9,28.9,332.2,29z M336.7,29.6l6.6-4.1   c0.1-0.1,0.2,0.1,0.1,0.2l-5.5,5.1c-0.2,0.2-0.3,0.4-0.4,0.7l-0.2,1.4c0,0.2-0.3,0.2-0.3,0l-0.7-2.5   C336.3,30,336.4,29.7,336.7,29.6z"/>
</g>
<polygon class="st5" points="12,124.7 0.5,132 0.5,144.8 12,159.3 23.5,144.8 23.5,132 "/>
<path class="st0" d="M318.1,10.5c0.5,0.5,1.1,1,1.5,1.6c0.2,0.2,0.4,0.5,0.5,0.8c0.2,0.4,0,0.8-0.4,0.9h-2.3  c-0.6,0.1-1.1-0.2-1.4-0.6c-0.3-0.3-0.6-0.7-0.9-1c-0.2-0.2-0.2-0.3-0.4-0.4c-0.3-0.2-0.6-0.2-0.8,0.2c-0.2,0.3-0.2,0.7-0.2,1.1  c0,0.5-0.2,0.7-0.8,0.7c-1.1,0.1-2.3-0.2-3.2-0.7c-0.9-0.5-1.6-1.2-2.2-2c-1.2-1.6-2.1-3.4-2.9-5.2c-0.2-0.4-0.1-0.6,0.4-0.6  c0.8,0,1.5,0,2.3,0c0.3,0,0.5,0.2,0.6,0.5c0.4,1,0.9,2,1.5,2.8c0.2,0.2,0.3,0.5,0.6,0.6c0.3,0.2,0.5,0.2,0.6-0.2  c0.1-0.2,0.2-0.4,0.2-0.6c0.1-0.7,0.1-1.4,0-2c-0.1-0.5-0.3-0.7-0.8-0.8c-0.2-0.1-0.2-0.2-0.1-0.2c0.2-0.2,0.4-0.4,0.7-0.4h2.6  c0.4,0.1,0.5,0.2,0.5,0.7v2.9c0,0.2,0.1,0.6,0.4,0.8c0.2,0.1,0.4-0.1,0.5-0.2c0.6-0.7,1.1-1.4,1.4-2.3c0.2-0.4,0.3-0.8,0.5-1.1  c0.1-0.3,0.3-0.4,0.6-0.4h2.5c0.1,0,0.2,0,0.2,0c0.5,0.1,0.5,0.2,0.4,0.7c-0.2,0.7-0.6,1.2-1,1.7c-0.5,0.6-0.8,1.1-1.3,1.7  C317.5,9.8,317.6,10,318.1,10.5L318.1,10.5z"/>
<path class="st0" d="M273.7,8.9c-0.5-0.4-1.3-0.5-1.3-0.5s0.6-0.4,0.9-0.7c0.3-0.4,0.4-0.9,0.4-1.2c0-0.3,0.1-1.5-0.9-2.2  c-0.7-0.5-1.6-0.8-2.7-0.8V1h-1.5v2.4c-0.3,0-0.7,0-1.2,0V1H266v2.4c-1.5,0-3,0-3,0V5c0,0,0.6,0,0.9,0s0.7,0,0.8,0.2  c0.2,0.2,0.2,0.3,0.2,0.7c0,0.4,0,6.1,0,6.3s0,0.3-0.2,0.5c-0.1,0.1-0.3,0.2-0.6,0.2c-0.3,0-0.9,0-0.9,0l-0.3,1.8c0,0,1.5,0,3,0V17  h1.5v-2.4c0.5,0,0.9,0,1.2,0V17h1.5v-2.5c0.4,0,0.8-0.1,1-0.1c0.4-0.1,1.4-0.2,2.3-0.8s1.1-1.6,1.1-2.6  C274.6,10,274.2,9.3,273.7,8.9z M267.5,8V5.1c0,0,0.5,0,1,0s0.9,0,1.5,0.2s1,0.7,1,1.2c0,0.6-0.2,0.9-0.6,1.2  c-0.4,0.2-1,0.4-1.6,0.4C268.2,8.1,267.5,8,267.5,8z M270.9,12.3c-0.3,0.2-1,0.4-1.7,0.4s-1.7,0-1.7,0V9.6c0,0,1-0.1,1.7,0  s1.4,0.2,1.7,0.4s0.8,0.5,0.8,1.2C271.6,11.9,271.2,12.2,270.9,12.3z"/>
<path class="st0" d="M297.8,28.9c-0.5-0.4-1.3-0.5-1.3-0.5s0.6-0.4,0.9-0.7c0.3-0.4,0.4-0.9,0.4-1.2s0.1-1.5-0.9-2.2  c-0.7-0.5-1.6-0.8-2.7-0.8V21h-1.5v2.4c-0.3,0-0.7,0-1.2,0V21h-1.4v2.4c-1.5,0-3,0-3,0V25c0,0,0.6,0,0.9,0s0.7,0,0.8,0.2  c0.2,0.2,0.2,0.3,0.2,0.7s0,6.1,0,6.3s0,0.3-0.2,0.5c-0.1,0.1-0.3,0.2-0.6,0.2c-0.3,0-0.9,0-0.9,0l-0.3,1.8c0,0,1.5,0,3,0V37h1.5  v-2.4c0.5,0,0.9,0,1.2,0V37h1.5v-2.5c0.4,0,0.8-0.1,1-0.1c0.4-0.1,1.4-0.2,2.3-0.8s1.1-1.6,1.1-2.6C298.7,30,298.3,29.3,297.8,28.9z   M291.6,28v-2.9c0,0,0.5,0,1,0s0.9,0,1.5,0.2s1,0.7,1,1.2c0,0.6-0.2,0.9-0.6,1.2c-0.4,0.2-1,0.4-1.6,0.4  C292.3,28.1,291.6,28,291.6,28z M295,32.3c-0.3,0.2-1,0.4-1.7,0.4s-1.7,0-1.7,0v-3.1c0,0,1-0.1,1.7,0s1.4,0.2,1.7,0.4  s0.8,0.5,0.8,1.2C295.7,31.9,295.3,32.2,295,32.3z"/>
<path class="st0" d="M241.5,9.2c0,4.4,3.6,8,8,8s8-3.6,8-8s-3.6-8-8-8C245.1,1.2,241.5,4.8,241.5,9.2z M243.2,9.2  c0-0.5,0.1-1,0.2-1.5l1.5,1.5l-0.3,2l1.3,1.3v1.8C244.2,13.2,243.2,11.3,243.2,9.2z M248,3c0.5-0.1,1-0.2,1.5-0.2  c0.6,0,1.1,0.1,1.6,0.2l-0.3,0.5l0.3,0.3h1l0.3-0.3c0.2,0.1,0.5,0.3,0.7,0.4l-0.6,0.2l-0.7,0.7l0.7,0.3v0.3h-0.7v0.7  c0,0,0.5,0.3,1,0.3s0.3-0.7,0.7-1s0.8-0.2,0.8-0.2l0.2,0.1c0.4,0.5,0.7,1.1,1,1.8l0,0c0,0-0.5-0.3-1.3-0.3c-0.9,0-1.7,0.3-1.7,0.3  s-0.9,0.3-1,1c-0.1,1.3,0.3,1.7,0.3,1.7l1.7,1V14c-1.1,0.9-2.5,1.4-4,1.4c-0.7,0-1.4-0.1-2-0.3l1.7-4l-0.3-1.7c0,0-1.3-1.7-2-1.7  s-1,1-1,1l-0.7-1.3l2-1.3l1-2.7L248,3z"/>
<path class="st0" d="M234.8,9.3c-0.3-0.7-1.1-1-1.9-0.7l-0.7,0.3L230.5,5l0.7-0.3c0.7-0.3,1-1.1,0.7-1.9c-0.3-0.7-1.1-1-1.9-0.7  l-0.7,0.3L229,1.7c-0.3-0.7-1.1-1-1.9-0.7c-0.7,0.3-1,1.1-0.7,1.9l0.3,0.7L223,5.4l-0.3-0.7c-0.3-0.7-1.1-1-1.9-0.7  c-0.7,0.3-1,1.1-0.7,1.9l0.3,0.7l-0.7,0.3c-0.7,0.3-1,1.1-0.7,1.9c0.3,0.7,1.1,1,1.9,0.7l0.7-0.3l1.7,3.9l-0.7,0.3  c-0.7,0.3-1,1.1-0.7,1.9c0.3,0.7,1.1,1,1.9,0.7l0.7-0.3l0.3,0.7c0.3,0.7,1.1,1,1.9,0.7c0.7-0.3,1-1.1,0.7-1.9l-0.3-0.7l3.9-1.7  l0.3,0.7c0.3,0.7,1.1,1,1.9,0.7c0.7-0.3,1-1.1,0.7-1.9l-0.3-0.7l0.7-0.3C234.8,10.9,235.1,10,234.8,9.3z M225.9,11.8l-1.7-3.9  l3.9-1.7l1.7,3.9L225.9,11.8z"/>
<path class="st0" d="M209.4,4.3h1.5V2h-1.8l0,0c-2.9,0.1-3.4,1.6-3.5,3.3l0,0v1.9h-1.5v2.3h1.5V18h2.9V9.5h2.2l0.4-2.3h-2.6V5.5  C208.5,4.9,208.9,4.3,209.4,4.3z"/>
<path class="st0" d="M190.8,3.5c1.3,0,1.9,0.4,2.6,1c0.5,0,1.3-0.4,1.7-0.6c0.1-0.1,0.3-0.1,0.4-0.2c-0.2,0.6-0.6,1.2-1.1,1.5  c-0.1,0.1-0.2,0.2-0.4,0.3l0,0c0.7,0,1.3-0.3,1.9-0.5l0,0c-0.3,0.5-0.7,0.9-1.1,1.3c-0.2,0.1-0.3,0.3-0.5,0.4c0,0.8,0,1.5-0.2,2.1  c-0.8,3.7-3,6.2-6.4,7.3c-1.2,0.4-3.2,0.5-4.6,0.2c-0.7-0.2-1.3-0.4-1.9-0.6c-0.3-0.1-0.6-0.3-0.9-0.5c-0.1-0.1-0.2-0.1-0.3-0.2  c0.3,0,0.7,0.1,1,0s0.6,0,0.9-0.1c0.7-0.2,1.4-0.4,2-0.7c0.3-0.2,0.7-0.4,0.9-0.6c-0.4,0-0.7-0.1-1-0.2c-1.1-0.4-1.7-1.1-2.1-2.1  c0.3,0,1.2,0.1,1.5-0.1c-0.4,0-0.8-0.3-1.1-0.4c-0.9-0.5-1.6-1.4-1.5-2.8c0.1,0.1,0.2,0.1,0.3,0.2c0.2,0.1,0.4,0.1,0.7,0.2  c0.1,0,0.3,0.1,0.4,0l0,0c-0.2-0.2-0.4-0.3-0.6-0.5c-0.5-0.7-1.1-1.7-0.7-3c0.1-0.3,0.2-0.6,0.4-0.9l0,0c0.1,0.1,0.2,0.2,0.3,0.3  c0.3,0.3,0.6,0.7,1,0.9c1.2,0.9,2.3,1.5,4,1.9c0.4,0.1,0.9,0.2,1.5,0.2c-0.1-0.4-0.1-1.1,0-1.5c0.3-1,0.9-1.8,1.9-2.2  c0.2-0.1,0.5-0.2,0.7-0.2C190.5,3.5,190.6,3.5,190.8,3.5z"/>
<g>
	<path class="st0" d="M0,42h42V0H0V42z M1.4,1.4h39.1v39.1H1.4V1.4z"/>
	<rect x="7" y="14.7" class="st0" width="1.4" height="12.6"/>
	<path class="st0" d="M17,26c-2.8,0-5.1-2.3-5.1-5c0-2.8,2.3-5,5.1-5c1.4,0,2.8,0.6,3.7,1.6l0.9-1c-1.2-1.1-2.9-1.8-4.6-1.8   c-3.7,0-6.6,2.8-6.6,6.3c0,3.6,2.9,6.4,6.5,6.4c1.7,0,3.4-0.7,4.7-1.9l-0.9-1C19.7,25.4,18.4,26,17,26z"/>
	<path class="st0" d="M28.4,14.7c-3.7,0-6.6,2.8-6.6,6.3s2.9,6.4,6.6,6.4S35,24.6,35,21S32.1,14.7,28.4,14.7z M28.4,26   c-2.8,0-5.1-2.3-5.1-5c0-2.8,2.3-5,5.1-5s5.1,2.2,5.1,5C33.6,23.8,31.2,26,28.4,26z"/>
	<path class="st0" d="M58,15.2c-2.2,0-3.9,0.9-5.1,2.4V9h-5.7v23.9h5.7v-2.3c1.2,1.6,3,2.4,5.2,2.4c4.8,0,8-3.5,8-8.8   C66.1,18.8,62.9,15.2,58,15.2z M56.6,28.4c-2.2,0-3.7-1.7-3.7-4.3s1.5-4.3,3.7-4.3c2.3,0,3.8,1.8,3.8,4.3   C60.4,26.7,58.8,28.4,56.6,28.4z"/>
	<path class="st0" d="M76.1,15.2c-5.4,0-9.1,3.6-9.1,9c0,5.3,3.5,8.8,9.2,8.8c3.2,0,5.8-1.1,7.6-3.1l-3-3c-1.2,1.2-2.6,1.8-4.1,1.8   c-2,0-3.4-1.1-4-3.1h12.1C85.2,19.3,82.2,15.2,76.1,15.2z M72.6,22.6c0.4-2,1.6-3.3,3.5-3.3s3.2,1.4,3.2,3.3H72.6z"/>
	<path class="st0" d="M97.3,15.2c-2.5,0-4.5,1.1-5.8,3.1v-2.8h-5.7v17.4h5.7v-9.2c0.2-2,1.5-3.3,3.4-3.3c1.8,0,3,1.2,3,3.2v9.3h5.7   v-11C103.6,17.8,101,15.2,97.3,15.2z"/>
	<path class="st0" d="M113.7,28.4c-2.1,0-3.5-1.7-3.5-4.2s1.4-4.2,3.5-4.2c1.5,0,2.6,0.7,3.4,1.8l4.1-2.4c-1.5-2.6-4.3-4.1-7.8-4.1   c-5.4,0-9,3.6-9,9c0,5.3,3.6,8.8,8.9,8.8c3.7,0,6.5-1.5,7.9-4.2l-4.2-2.4C116.4,27.8,115.2,28.4,113.7,28.4z"/>
	<path class="st0" d="M133.7,15.2c-2.5,0-4.5,1.1-5.8,3.1V9h-5.7v23.9h5.7v-8.6c0-2.3,1.3-3.9,3.4-3.9c1.8,0,3,1.2,3,3.2v9.3h5.7   v-11C140,17.8,137.5,15.2,133.7,15.2z"/>
</g>
<g>
	<path class="st6" d="M0,84h42V42H0V84z M1.4,43.4h39.1v39.1H1.4V43.4z"/>
	<rect x="7" y="56.7" class="st6" width="1.4" height="12.6"/>
	<path class="st6" d="M17,68c-2.8,0-5.1-2.3-5.1-5c0-2.8,2.3-5,5.1-5c1.4,0,2.8,0.6,3.7,1.6l0.9-1c-1.2-1.1-2.9-1.8-4.6-1.8   c-3.7,0-6.6,2.8-6.6,6.3c0,3.6,2.9,6.4,6.5,6.4c1.7,0,3.4-0.7,4.7-1.9l-0.9-1C19.7,67.4,18.4,68,17,68z"/>
	<path class="st6" d="M28.4,56.7c-3.7,0-6.6,2.8-6.6,6.3s2.9,6.4,6.6,6.4S35,66.6,35,63S32.1,56.7,28.4,56.7z M28.4,68   c-2.8,0-5.1-2.3-5.1-5c0-2.8,2.3-5,5.1-5s5.1,2.2,5.1,5C33.6,65.8,31.2,68,28.4,68z"/>
	<path class="st6" d="M58,57.2c-2.2,0-3.9,0.9-5.1,2.4V51h-5.7v23.9h5.7v-2.3c1.2,1.6,3,2.4,5.2,2.4c4.8,0,8-3.5,8-8.8   C66.1,60.8,62.9,57.2,58,57.2z M56.6,70.4c-2.2,0-3.7-1.7-3.7-4.3c0-2.6,1.5-4.3,3.7-4.3c2.3,0,3.8,1.8,3.8,4.3   C60.4,68.7,58.8,70.4,56.6,70.4z"/>
	<path class="st6" d="M76.1,57.2c-5.4,0-9.1,3.6-9.1,9c0,5.3,3.5,8.8,9.2,8.8c3.2,0,5.8-1.1,7.6-3.1l-3-3c-1.2,1.2-2.6,1.8-4.1,1.8   c-2,0-3.4-1.1-4-3.1h12.1C85.2,61.3,82.2,57.2,76.1,57.2z M72.6,64.6c0.4-2,1.6-3.3,3.5-3.3s3.2,1.4,3.2,3.3H72.6z"/>
	<path class="st6" d="M97.3,57.2c-2.5,0-4.5,1.1-5.8,3.1v-2.8h-5.7v17.4h5.7v-9.2c0.2-2,1.5-3.3,3.4-3.3c1.8,0,3,1.2,3,3.2v9.3h5.7   v-11C103.6,59.8,101,57.2,97.3,57.2z"/>
	<path class="st6" d="M113.7,70.4c-2.1,0-3.5-1.7-3.5-4.2s1.4-4.2,3.5-4.2c1.5,0,2.6,0.7,3.4,1.8l4.1-2.4c-1.5-2.6-4.3-4.1-7.8-4.1   c-5.4,0-9,3.6-9,9c0,5.3,3.6,8.8,8.9,8.8c3.7,0,6.5-1.5,7.9-4.2l-4.2-2.4C116.4,69.8,115.2,70.4,113.7,70.4z"/>
	<path class="st6" d="M133.7,57.2c-2.5,0-4.5,1.1-5.8,3.1V51h-5.7v23.9h5.7v-8.6c0-2.3,1.3-3.9,3.4-3.9c1.8,0,3,1.2,3,3.2v9.3h5.7   v-11C140,59.8,137.5,57.2,133.7,57.2z"/>
</g>
<g>
	<g>
		<path class="st7" d="M168,1.5c3.6,0,6.5,2.9,6.5,6.5s-2.9,6.5-6.5,6.5s-6.5-2.9-6.5-6.5S164.4,1.5,168,1.5 M168,0    c-4.4,0-8,3.6-8,8s3.6,8,8,8s8-3.6,8-8S172.4,0,168,0L168,0z"/>
	</g>
</g>
<polyline class="st8" points="167.8,3.7 167.8,9 171.3,9 "/>
<path class="st1" d="M189.8,2.5c1.3,0,1.9,0.4,2.6,1c0.5,0,1.3-0.4,1.7-0.6c0.1-0.1,0.3-0.1,0.4-0.2c-0.2,0.6-0.6,1.2-1.1,1.5  c-0.1,0.1-0.2,0.2-0.4,0.3l0,0c0.7,0,1.3-0.3,1.9-0.5l0,0c-0.3,0.5-0.7,0.9-1.1,1.3c-0.2,0.1-0.3,0.3-0.5,0.4c0,0.8,0,1.5-0.2,2.1  c-0.8,3.7-3,6.2-6.4,7.3c-1.2,0.4-3.2,0.5-4.6,0.2c-0.7-0.2-1.3-0.4-1.9-0.6c-0.3-0.1-0.6-0.3-0.9-0.5c-0.1-0.1-0.2-0.1-0.3-0.2  c0.3,0,0.7,0.1,1,0s0.6,0,0.9-0.1c0.7-0.2,1.4-0.4,2-0.7c0.3-0.2,0.7-0.4,0.9-0.6c-0.4,0-0.7-0.1-1-0.2c-1.1-0.4-1.7-1.1-2.1-2.1  c0.3,0,1.2,0.1,1.5-0.1c-0.4,0-0.8-0.3-1.1-0.4c-0.9-0.5-1.6-1.4-1.5-2.8c0.1,0.1,0.2,0.1,0.3,0.2c0.2,0.1,0.4,0.1,0.7,0.2  c0.1,0,0.3,0.1,0.4,0l0,0c-0.2-0.2-0.4-0.3-0.6-0.5c-0.5-0.7-1.1-1.7-0.7-3c0.1-0.3,0.2-0.6,0.4-0.9l0,0c0.1,0.1,0.2,0.2,0.3,0.3  c0.3,0.3,0.6,0.7,1,0.9c1.2,0.9,2.3,1.5,4,1.9c0.4,0.1,0.9,0.2,1.5,0.2c-0.1-0.4-0.1-1.1,0-1.5c0.3-1,0.9-1.8,1.9-2.2  c0.2-0.1,0.5-0.2,0.7-0.2C189.5,2.5,189.6,2.5,189.8,2.5z"/>
<g>
	<path class="st9" d="M181.3,4.5c0.3,0.3,0.6,0.7,1,0.9c1.2,0.9,2.3,1.5,4,1.9c0.4,0.1,0.9,0.2,1.5,0.2c-0.1-0.4-0.1-1.1,0-1.5   c0.3-1,0.9-1.8,1.9-2.2c0.2-0.1,0.5-0.2,0.7-0.2c0.1,0,0.3,0,0.4,0c1.2,0,1.8,0.4,2.5,0.9c0.1,0,0.1-0.1,0.2-0.1   c0.5-0.4,0.8-0.9,1.1-1.5c-0.1,0.1-0.3,0.1-0.4,0.2c-0.4,0.2-1.1,0.5-1.7,0.6c-0.6-0.6-1.3-1.1-2.6-1c-0.1,0-0.3,0-0.4,0   c-0.3,0.1-0.5,0.1-0.7,0.2c-0.9,0.4-1.6,1.2-1.9,2.2c-0.1,0.4-0.2,1.1,0,1.5c-0.5,0-1-0.1-1.5-0.2C183.5,5.9,182.5,5.3,181.3,4.5   c-0.1-0.1-0.1-0.2-0.2-0.2C181.2,4.3,181.2,4.4,181.3,4.5z"/>
	<path class="st9" d="M193.4,4.5c0.5,0,1.1-0.3,1.5-0.5C194.4,4.2,193.9,4.4,193.4,4.5C193.3,4.5,193.3,4.5,193.4,4.5z"/>
	<path class="st9" d="M181.1,15c0.3,0,0.5,0,0.8-0.1c0.7-0.2,1.4-0.4,2-0.7c0.3-0.2,0.7-0.4,0.9-0.6c-0.4,0-0.7-0.1-1-0.2   c-0.3-0.1-0.5-0.2-0.7-0.3c-0.1,0-0.1,0.1-0.2,0.1c-0.6,0.3-1.2,0.5-2,0.7c-0.3,0.1-0.6,0.1-0.9,0.1c-0.4,0.1-0.7,0-1,0   c0.1,0.1,0.2,0.1,0.3,0.2c0.3,0.2,0.6,0.3,0.9,0.5C180.4,14.8,180.7,14.9,181.1,15z"/>
	<path class="st9" d="M180.5,7.4c-0.3-0.1-0.5-0.1-0.7-0.2c-0.1-0.1-0.2-0.1-0.3-0.2c0,1.3,0.7,2.2,1.5,2.8   c-0.3-0.5-0.5-1.1-0.5-1.8c0.1,0.1,0.2,0.1,0.3,0.2c0.2,0.1,0.4,0.1,0.7,0.2c0.1,0,0.3,0.1,0.4,0l0,0c-0.2-0.2-0.4-0.3-0.6-0.5   c-0.5-0.7-1.1-1.7-0.7-3c0.1-0.3,0.2-0.6,0.3-0.8c-0.2-0.2-0.5-0.4-0.7-0.7c-0.1-0.1-0.2-0.2-0.3-0.3l0,0c-0.1,0.3-0.3,0.5-0.4,0.9   c-0.3,1.2,0.2,2.3,0.7,3c0.2,0.2,0.4,0.3,0.6,0.5l0,0C180.9,7.5,180.6,7.4,180.5,7.4z"/>
	<path class="st9" d="M182.1,12.2c-0.1-0.2-0.3-0.5-0.4-0.8c0.3,0,1.2,0.1,1.5-0.1c-0.4,0-0.8-0.3-1.1-0.4c-0.2-0.1-0.4-0.3-0.6-0.5   c-0.3,0-0.6,0-0.8,0C181,11.2,181.4,11.8,182.1,12.2z"/>
</g>
<path class="st1" d="M208.4,3.3h1.5V1h-1.8l0,0c-2.9,0.1-3.4,1.6-3.5,3.3l0,0v1.9h-1.5v2.3h1.5V17h2.9V8.5h2.2l0.4-2.3h-2.6V4.5  C207.5,3.9,207.9,3.3,208.4,3.3z"/>
<path class="st0" d="M229.3,26.1h1.5V24H229l0,0c-2.9,0.1-3.4,1.5-3.5,3.1l0,0v1.8H224V31h1.5v7h2.9v-7h2.2l0.4-2.1h-2.6v-1.7  C228.4,26.6,228.8,26.1,229.3,26.1z"/>
<g>
	<polygon class="st9" points="208.5,6.2 208.5,7.2 209.9,7.2 210.1,6.2  "/>
	<path class="st9" d="M204.1,7.2h1.5V5.3l0,0c0.1-1.6,0.6-3.2,3.5-3.3l0,0h0.8V1h-1.8l0,0c-2.9,0.1-3.4,1.6-3.5,3.3l0,0v1.9h-1.5   v2.3h1V7.2z"/>
	<rect x="204.6" y="9.5" class="st9" width="1" height="7.5"/>
</g>
<path class="st1" d="M233.8,8.3c-0.3-0.7-1.1-1-1.9-0.7l-0.7,0.3L229.5,4l0.7-0.3c0.7-0.3,1-1.1,0.7-1.9c-0.3-0.7-1.1-1-1.9-0.7  l-0.7,0.3L228,0.7c-0.3-0.7-1.1-1-1.9-0.7c-0.7,0.3-1,1.1-0.7,1.9l0.3,0.7L222,4.4l-0.3-0.7c-0.3-0.7-1.1-1-1.9-0.7  c-0.7,0.3-1,1.1-0.7,1.9l0.3,0.7l-0.7,0.3c-0.7,0.3-1,1.1-0.7,1.9c0.3,0.7,1.1,1,1.9,0.7l0.7-0.3l1.7,3.9l-0.7,0.3  c-0.7,0.3-1,1.1-0.7,1.9c0.3,0.7,1.1,1,1.9,0.7l0.7-0.3l0.3,0.7c0.3,0.7,1.1,1,1.9,0.7c0.7-0.3,1-1.1,0.7-1.9l-0.3-0.7l3.9-1.7  l0.3,0.7c0.3,0.7,1.1,1,1.9,0.7c0.7-0.3,1-1.1,0.7-1.9l-0.3-0.7l0.7-0.3C233.8,9.9,234.1,9,233.8,8.3z M224.9,10.8l-1.7-3.9l3.9-1.7  l1.7,3.9L224.9,10.8z"/>
<g>
	<path class="st9" d="M230.9,12.6l-0.3,0.2c0.2,0.1,0.3,0.2,0.5,0.3L230.9,12.6z"/>
	<polygon class="st9" points="227.5,6.4 228.7,9.1 225.3,10.6 225.9,11.8 229.7,10.1 228,6.2  "/>
	<path class="st9" d="M224.4,15.5l-0.3,0.2c0.2,0.1,0.3,0.2,0.5,0.3L224.4,15.5z"/>
	<path class="st9" d="M231.7,7.7l0.5,1.2l0.7-0.3c0.3-0.1,0.6-0.1,0.9-0.1c0-0.1,0-0.1-0.1-0.2c-0.3-0.7-1.1-1-1.9-0.7L231.7,7.7z"/>
	<path class="st9" d="M219.7,6.8l0.7-0.3l-0.3-0.7c-0.3-0.7,0-1.5,0.7-1.9c0.3-0.1,0.6-0.1,1-0.1l-0.1-0.2c-0.3-0.7-1.1-1-1.9-0.7   c-0.7,0.3-1,1.1-0.7,1.9l0.3,0.7l-0.7,0.3c-0.7,0.3-1,1.1-0.7,1.9c0.2,0.4,0.5,0.7,0.9,0.8C218.8,7.8,219.1,7.1,219.7,6.8z"/>
	<path class="st9" d="M222.6,13.2l0.7-0.3L221.6,9l-0.5,0.2l1.2,2.7l-0.7,0.3c-0.7,0.3-1,1.1-0.7,1.9c0.2,0.4,0.5,0.7,0.9,0.8   C221.7,14.2,222,13.5,222.6,13.2z"/>
	<path class="st9" d="M225.8,2.6l-3.5,1.6c0.1,0.1,0.3,0.3,0.4,0.5l0.3,0.7l3.9-1.7L226.5,3c-0.3-0.7,0-1.5,0.7-1.9   c0.3-0.1,0.6-0.1,1-0.1l-0.1-0.2c-0.3-0.7-1.1-1-1.9-0.7c-0.7,0.3-1,1.1-0.7,1.9L225.8,2.6z"/>
	<path class="st9" d="M229.1,1.8l0.3,0.7l0.7-0.3c0.3-0.1,0.6-0.1,0.9-0.1c0-0.1,0-0.1-0.1-0.2c-0.3-0.7-1.1-1-1.9-0.7l-0.3,0.1   C228.9,1.5,229,1.6,229.1,1.8z"/>
</g>
<path class="st1" d="M240.5,8.2c0,4.4,3.6,8,8,8s8-3.6,8-8s-3.6-8-8-8C244.1,0.2,240.5,3.8,240.5,8.2z M242.2,8.2  c0-0.5,0.1-1,0.2-1.5l1.5,1.5l-0.3,2l1.3,1.3v1.8C243.2,12.2,242.2,10.3,242.2,8.2z M247,2c0.5-0.1,1-0.2,1.5-0.2  c0.6,0,1.1,0.1,1.6,0.2l-0.3,0.5l0.3,0.3h1l0.3-0.3c0.2,0.1,0.5,0.3,0.7,0.4l-0.6,0.2l-0.7,0.7l0.7,0.3v0.3h-0.7v0.7  c0,0,0.5,0.3,1,0.3s0.3-0.7,0.7-1s0.8-0.2,0.8-0.2l0.2,0.1c0.4,0.5,0.7,1.1,1,1.8l0,0c0,0-0.5-0.3-1.3-0.3c-0.9,0-1.7,0.3-1.7,0.3  s-0.9,0.3-1,1c-0.1,1.2,0.3,1.7,0.3,1.7l1.7,1V13c-1.1,0.9-2.5,1.4-4,1.4c-0.7,0-1.4-0.1-2-0.3l1.7-4l-0.3-1.7c0,0-1.3-1.7-2-1.7  s-1,1-1,1l-0.7-1.3l2-1.3l1-2.7L247,2z"/>
<g>
	<path class="st9" d="M253.5,14.1v-3.2l-1-0.6v2.8c-1.1,0.9-2.5,1.4-4,1.4c-0.3,0-0.5,0-0.7-0.1l-0.3,0.7c0.6,0.2,1.3,0.3,2,0.3   C251,15.5,252.4,15,253.5,14.1z"/>
	<path class="st9" d="M245.8,14.4v-1.8l-1-1v1.8c-0.1-0.1-0.2-0.1-0.3-0.2C244.9,13.6,245.3,14,245.8,14.4z"/>
	<path class="st9" d="M255.5,7.2L255.5,7.2c-0.2-0.7-0.5-1.3-1-1.8l-0.2-0.1c0,0-0.1,0-0.2,0c0.1,0.3,0.3,0.6,0.4,0.8l0,0   c0,0-0.4-0.3-1.2-0.3c-0.1,0.3-0.1,0.7-0.5,0.7c-0.5,0-1-0.3-1-0.3V6.1c-0.2,0.1-0.3,0.1-0.3,0.1s-0.9,0.3-1,1   c-0.1,1.3,0.3,1.7,0.3,1.7l0.7,0.4c-0.1-0.3-0.1-0.6-0.1-1.1c0.1-0.7,1-1,1-1s0.8-0.3,1.7-0.3C255,6.9,255.5,7.2,255.5,7.2z"/>
	<path class="st9" d="M246.8,7.9c0.2,0,0.5,0.2,0.8,0.4c-0.3-0.4-1-1.1-1.5-1.4l-0.9,0.6l0.7,1.3C245.8,8.9,246.2,7.9,246.8,7.9z"/>
	<path class="st9" d="M252.2,3.9h-1L251,3.7l-0.2,0.2l0.7,0.3v0.3h-0.7v0.7c0,0,0.5,0.3,1,0.3l0,0l0,0l0,0c0.3,0,0.3-0.2,0.4-0.5   l-0.4-0.2l0.7-0.7l0.6-0.2c-0.2-0.2-0.4-0.3-0.7-0.4L252.2,3.9z"/>
	<path class="st9" d="M241.5,9.2c0-4.4,3.6-8,8-8c2,0,3.7,0.7,5.1,1.9c-1.5-1.8-3.7-2.9-6.1-2.9c-4.4,0-8,3.6-8,8   c0,2.5,1.1,4.7,2.9,6.1C242.2,13,241.5,11.2,241.5,9.2z"/>
	<polygon class="st9" points="243.5,10.2 244.5,11.2 244.8,9.2 243.8,8.2  "/>
</g>
<path class="st1" d="M272.7,7.9c-0.5-0.4-1.3-0.5-1.3-0.5s0.6-0.4,0.9-0.7c0.3-0.4,0.4-0.9,0.4-1.2s0.1-1.5-0.9-2.2  c-0.7-0.5-1.6-0.8-2.7-0.8V0h-1.5v2.4c-0.3,0-0.7,0-1.2,0V0H265v2.4c-1.5,0-3,0-3,0V4c0,0,0.6,0,0.9,0s0.7,0,0.8,0.2  c0.2,0.2,0.2,0.3,0.2,0.7c0,0.4,0,6.1,0,6.3s0,0.3-0.2,0.5c-0.1,0.1-0.3,0.2-0.6,0.2c-0.3,0-0.9,0-0.9,0l-0.3,1.8c0,0,1.5,0,3,0V16  h1.5v-2.4c0.5,0,0.9,0,1.2,0V16h1.5v-2.5c0.4,0,0.8-0.1,1-0.1c0.4-0.1,1.4-0.2,2.3-0.8s1.1-1.6,1.1-2.6C273.6,9,273.2,8.3,272.7,7.9  z M266.5,7V4.1c0,0,0.5,0,1,0s0.9,0,1.5,0.2s1,0.7,1,1.2c0,0.6-0.2,0.9-0.6,1.2c-0.4,0.2-1,0.4-1.6,0.4C267.2,7.1,266.5,7,266.5,7z   M269.9,11.3c-0.3,0.2-1,0.4-1.7,0.4s-1.7,0-1.7,0V8.6c0,0,1-0.1,1.7,0s1.4,0.2,1.7,0.4s0.8,0.5,0.8,1.2  C270.6,10.9,270.2,11.2,269.9,11.3z"/>
<g>
	<path class="st9" d="M270.1,3.5c0.9,0.1,1.7,0.2,2.3,0.6c-0.1-0.3-0.3-0.6-0.6-0.8c-0.5-0.4-1-0.6-1.7-0.7L270.1,3.5L270.1,3.5z"/>
	<path class="st9" d="M270.9,6.5c0-0.6-0.4-1-1-1.2l0,0c0,0.1,0,0.1,0,0.2c0,0.6-0.2,0.9-0.6,1.2c-0.4,0.2-1,0.4-1.6,0.4   c-0.1,0-0.2,0-0.3,0v1c0,0,0.7,0,1.3,0c0.6,0,1.1-0.1,1.6-0.4C270.7,7.4,271,7.1,270.9,6.5z"/>
	<path class="st9" d="M269.1,12.8c0.7-0.1,1.4-0.2,1.7-0.4c0.4-0.2,0.8-0.5,0.8-1.2s-0.5-1.1-0.8-1.2c-0.1,0-0.2-0.1-0.3-0.1   c0,0.1,0.1,0.2,0.1,0.3c0,0.7-0.4,1-0.8,1.2c-0.3,0.2-1,0.4-1.7,0.4c-0.2,0-0.4,0-0.7,0v1C267.5,12.8,268.5,12.8,269.1,12.8z"/>
	<path class="st9" d="M267.5,3.4c0.4,0,0.8,0,1.2,0V1h0.5V0h-1.5v2.4c0,0-0.1,0-0.2,0V3.4z"/>
	<path class="st9" d="M273.3,8.7c-0.1-0.2-0.3-0.4-0.4-0.6c-0.2,0.2-0.4,0.3-0.4,0.3S272.9,8.5,273.3,8.7z"/>
	<path class="st9" d="M263,4V3.4c0,0,1.4,0,3,0V1h0.5V0H265v2.4c-1.5,0-3,0-3,0V4c0,0,0.6,0,0.9,0C262.9,4,262.9,4,263,4z"/>
	<path class="st9" d="M266,14.6c-0.3,0-0.7,0-1,0V16h1V14.6z"/>
	<path class="st9" d="M268.6,14.6c-0.3,0-0.6,0-1,0V16h1V14.6z"/>
	<path class="st9" d="M263.3,12.8c0,0,0.6,0,0.9,0s0.4,0,0.6-0.2c0.1-0.1,0.2-0.3,0.2-0.5s0-5.9,0-6.3s0-0.5-0.2-0.7   C264.5,5,264.2,5,263.9,5c0,0.7,0,6,0,6.2s0,0.3-0.2,0.5c-0.1,0.1-0.3,0.2-0.6,0.2s-0.9,0-0.9,0l-0.3,1.8c0,0,0.5,0,1.2,0   L263.3,12.8z"/>
</g>
<path class="st0" d="M277.4,27.5c-0.4,0-0.9,0.1-1.2,0.4c-1.1-0.7-2.5-1-4-1.1l0.9-2.5l1.8,0.4c0,0.1,0,0.1,0,0.1  c0,1,0.8,1.8,1.8,1.8s1.8-0.8,1.8-1.8s-0.8-1.8-1.8-1.8c-0.7,0-1.2,0.4-1.5,0.9l-2.6-0.7l-1.2,3.5c-1.5,0.1-2.9,0.5-4,1.2  c0,0,0.1,0,0.1-0.1c-0.4-0.2-0.8-0.4-1.2-0.4c-1.3,0-2.3,1.1-2.3,2.4c0,0.9,0.5,1.7,1.2,2.1c0.3,2.5,3.3,4.4,6.8,4.4  c3.6,0,6.6-2,6.9-4.5c0.7-0.4,1.1-1.2,1.1-2C279.7,28.6,278.7,27.5,277.4,27.5z M268.2,30.8c0-0.6,0.5-1.1,1.1-1.1s1.1,0.5,1.1,1.1  s-0.5,1.1-1.1,1.1S268.2,31.4,268.2,30.8z M274.3,33.9c-0.9,0.6-1.8,0.8-2.5,0.8c-1.5,0-2.5-0.8-2.6-0.9c-0.1-0.1-0.2-0.4-0.1-0.6  c0.1-0.1,0.4-0.2,0.6-0.1c0.1,0.1,1.9,1.5,4.2,0c0.2-0.1,0.4-0.1,0.6,0.1C274.5,33.5,274.4,33.8,274.3,33.9z M274,31.9  c-0.6,0-1.1-0.5-1.1-1.1s0.5-1.1,1.1-1.1s1.1,0.5,1.1,1.1S274.6,31.9,274,31.9z"/>
<path class="st0" d="M192,27.2c-0.2,0.1-0.8,0.3-1.4,0.4c0.4-0.2,0.9-0.9,1-1.4c-0.3,0.2-1.1,0.6-1.5,0.6l0,0  c-0.5-0.5-1.1-0.8-1.8-0.8c-1.4,0-2.5,1.1-2.5,2.5c0,0.2,0,0.4,0.1,0.6l0,0c-1.9,0-3.9-1-5.1-2.6c-0.8,1.3-0.1,2.8,0.8,3.4  c-0.3,0-0.8,0-1.1-0.3c0,0.9,0.4,2.1,1.9,2.5c-0.3,0.2-0.8,0.1-1,0.1c0.1,0.7,1.1,1.7,2.2,1.7c-0.4,0.5-1.9,1.3-3.6,1.1  c1.1,0.7,2.5,1.1,3.9,1.1c4,0,7.1-3.3,6.9-7.4l0,0l0,0l0,0C191.2,28.3,191.7,27.8,192,27.2z"/>
<path class="st0" d="M209.3,35.9v-4.1c0-1-0.2-1.7-1.1-1.7c-0.7,0-1.3,0.5-1.5,0.9c-0.1,0.2-0.1,0.4-0.1,0.6v4.3h-2.7c0,0,0-7.3,0-8  h2.7v1.4l0,0l0,0l0,0c0.3-0.5,1.1-1.4,2.5-1.4c1.7,0,3,1.2,3,3.6v4.4H209.3z M200,27.9h2.7v8H200V27.9z M201.4,26.8  c-0.8,0-1.4-0.6-1.4-1.4s0.6-1.4,1.4-1.4c0.8,0,1.4,0.6,1.4,1.4C202.7,26.2,202.1,26.8,201.4,26.8z"/>
<path class="st0" d="M240,31c0,3.9,3.2,7,7,7s7-3.1,7-7s-3.2-7-7-7S240,27.2,240,31z M241.5,31c0-0.4,0.1-0.9,0.2-1.3L243,31  l-0.3,1.8l1.1,1.1v1.6C242.4,34.5,241.5,32.9,241.5,31z M245.7,25.6c0.4-0.1,0.9-0.2,1.3-0.2c0.5,0,1,0.1,1.4,0.2l-0.3,0.4l0.3,0.3  h0.9l0.3-0.3c0.2,0.1,0.4,0.3,0.6,0.4l-0.5,0.2l-0.6,0.6l0.6,0.3v0.3h-0.6v0.5c0,0,0.4,0.3,0.9,0.3s0.3-0.6,0.6-0.9s0.7-0.2,0.7-0.2  l0.2,0.1c0.3,0.4,0.6,1,0.9,1.6l0,0c0,0-0.4-0.3-1.1-0.3c-0.8,0-1.5,0.3-1.5,0.3s-0.8,0.3-0.9,0.9c-0.1,1.1,0.3,1.5,0.3,1.5l1.5,0.9  v2.8c-1,0.8-2.2,1.2-3.5,1.2c-0.6,0-1.2-0.1-1.8-0.3l1.5-3.5l-0.3-1.5c0,0-1.1-1.5-1.8-1.5c-0.6,0-0.9,0.9-0.9,0.9l-0.6-1.1l1.8-1.1  L246,26L245.7,25.6z"/>
<path class="st10" d="M168.3,55.7l-6-6l6-6"/>
<path class="st10" d="M175.3,43.7l6,6l-6,6"/>
<path class="st1" d="M317.1,9.5c0.5,0.5,1.1,1,1.5,1.6c0.2,0.2,0.4,0.5,0.5,0.8c0.2,0.4,0,0.8-0.4,0.9h-2.3  c-0.6,0.1-1.1-0.2-1.4-0.6c-0.3-0.3-0.6-0.7-0.9-1c-0.2-0.2-0.2-0.3-0.4-0.4c-0.3-0.2-0.6-0.2-0.8,0.2c-0.2,0.3-0.2,0.7-0.2,1.1  c0,0.5-0.2,0.7-0.8,0.7c-1.1,0.1-2.3-0.2-3.2-0.7c-0.9-0.5-1.6-1.2-2.2-2c-1.2-1.6-2.1-3.4-2.9-5.2c-0.2-0.4-0.1-0.6,0.4-0.6  c0.8,0,1.5,0,2.3,0c0.3,0,0.5,0.2,0.6,0.5c0.4,1,0.9,2,1.5,2.8c0.2,0.2,0.3,0.5,0.6,0.6c0.3,0.2,0.5,0.2,0.6-0.2  c0.1-0.2,0.2-0.4,0.2-0.6c0.1-0.7,0.1-1.4,0-2c-0.1-0.5-0.3-0.7-0.8-0.8c-0.2-0.1-0.2-0.2-0.1-0.2c0.2-0.2,0.4-0.4,0.7-0.4h2.6  c0.4,0.1,0.5,0.2,0.5,0.7v2.9c0,0.2,0.1,0.6,0.4,0.8c0.2,0.1,0.4-0.1,0.5-0.2c0.6-0.7,1.1-1.4,1.4-2.3c0.2-0.4,0.3-0.8,0.5-1.1  c0.1-0.3,0.3-0.4,0.6-0.4h2.5c0.1,0,0.2,0,0.2,0c0.5,0.1,0.5,0.2,0.4,0.7c-0.2,0.7-0.6,1.2-1,1.7c-0.5,0.6-0.8,1.1-1.3,1.7  C316.5,8.8,316.6,9,317.1,9.5L317.1,9.5z"/>
<path class="st0" d="M169.6,32.5c0.5,0.5,1.1,1,1.5,1.6c0.2,0.2,0.4,0.5,0.5,0.8c0.2,0.4,0,0.8-0.4,0.9h-2.3  c-0.6,0.1-1.1-0.2-1.4-0.6c-0.3-0.3-0.6-0.7-0.9-1c-0.2-0.2-0.2-0.3-0.4-0.4c-0.3-0.2-0.6-0.2-0.8,0.2c-0.2,0.3-0.2,0.7-0.2,1.1  c0,0.5-0.2,0.7-0.8,0.7c-1.1,0.1-2.3-0.2-3.2-0.7s-1.6-1.2-2.2-2c-1.2-1.6-2.1-3.4-2.9-5.2c-0.2-0.4-0.1-0.6,0.4-0.6  c0.8,0,1.5,0,2.3,0c0.3,0,0.5,0.2,0.6,0.5c0.4,1,0.9,2,1.5,2.8c0.2,0.2,0.3,0.5,0.6,0.6c0.3,0.2,0.5,0.2,0.6-0.2  c0.1-0.2,0.2-0.4,0.2-0.6c0.1-0.7,0.1-1.4,0-2c-0.1-0.5-0.3-0.7-0.8-0.8c-0.2-0.1-0.2-0.2-0.1-0.2c0.2-0.2,0.4-0.4,0.7-0.4h2.6  c0.4,0.1,0.5,0.2,0.5,0.7v2.9c0,0.2,0.1,0.6,0.4,0.8c0.2,0.1,0.4-0.1,0.5-0.2c0.6-0.7,1.1-1.4,1.4-2.3c0.2-0.4,0.3-0.8,0.5-1.1  c0.1-0.3,0.3-0.4,0.6-0.4h2.5c0.1,0,0.2,0,0.2,0c0.5,0.1,0.5,0.2,0.4,0.7c-0.2,0.7-0.6,1.2-1,1.7c-0.5,0.6-0.8,1.1-1.3,1.7  C169,31.8,169.1,32,169.6,32.5L169.6,32.5z"/>
<g>
	<path class="st9" d="M309.1,4.5c0.5,0.1,0.7,0.3,0.8,0.8c0.1,0.7,0.1,1.4,0,2c0,0.2-0.1,0.5-0.2,0.6c-0.1,0.2-0.2,0.3-0.4,0.2   c0.1,0.1,0.1,0.2,0.2,0.3c0.2,0.2,0.3,0.5,0.6,0.6c0.3,0.2,0.5,0.2,0.6-0.2c0.1-0.2,0.2-0.4,0.2-0.6c0.1-0.7,0.1-1.4,0-2   c-0.1-0.5-0.3-0.7-0.8-0.8c-0.2-0.1-0.2-0.2-0.1-0.2c0.2-0.2,0.4-0.4,0.7-0.4h2.1V4.6c0-0.5-0.2-0.6-0.5-0.7h-2.6   c-0.3,0-0.5,0.2-0.7,0.4C308.9,4.4,308.9,4.5,309.1,4.5z"/>
	<path class="st9" d="M313.8,8.5c0,0.2,0.1,0.6,0.4,0.8c0.2,0.1,0.4-0.1,0.5-0.2c0.6-0.7,1.1-1.4,1.4-2.3c0.2-0.4,0.3-0.8,0.5-1.1   c0.1-0.3,0.3-0.4,0.6-0.4h1.9c0-0.1,0.1-0.2,0.2-0.3c0.2-0.5,0.1-0.6-0.4-0.7c-0.1,0-0.2,0-0.2,0h-2.5c-0.3,0-0.5,0.1-0.6,0.4   c-0.2,0.3-0.3,0.7-0.5,1.1c-0.4,0.8-0.8,1.5-1.3,2.1V8.5z"/>
	<path class="st9" d="M315.1,12.3c-0.2-0.2-0.2-0.3-0.4-0.4h-0.1C314.8,12,314.9,12.1,315.1,12.3c0,0.1,0.1,0.2,0.3,0.3   C315.3,12.4,315.2,12.3,315.1,12.3z"/>
	<path class="st9" d="M307.6,11.1c-1.2-1.6-2.1-3.4-2.9-5.2c-0.2-0.4-0.1-0.6,0.4-0.6c0.7,0,1.4,0,2.1,0c-0.1-0.2-0.2-0.4-0.3-0.5   c-0.1-0.3-0.3-0.5-0.6-0.5c-0.8,0-1.5,0-2.3,0c-0.5,0-0.5,0.2-0.4,0.6c0.8,1.8,1.7,3.6,2.9,5.2c0.4,0.6,0.8,1,1.4,1.4   C307.8,11.4,307.7,11.2,307.6,11.1z"/>
</g>
<path class="st1" d="M200.8,45.6v-4.2l7.1,6.8l-7.1,6.9v-4.2c0,0-7.8-1.6-11.7,6.2C189.1,45.5,200.8,45.6,200.8,45.6z"/>
<line class="st11" x1="221.3" y1="52.6" x2="229" y2="44.8"/>
<line class="st11" x1="229" y1="52.6" x2="221.3" y2="44.8"/>
<line class="st12" x1="126.3" y1="104.7" x2="133.1" y2="97.9"/>
<line class="st12" x1="133.1" y1="104.7" x2="126.3" y2="97.9"/>
<g>
	<path class="st9" d="M201.8,46.6v-4.2l6.1,5.8l0,0l-7.1-6.8v4.2c0,0-11.7-0.1-11.7,11.4c0.4-0.8,0.9-1.5,1.3-2.1   C192.3,46.5,201.8,46.6,201.8,46.6z"/>
	<path class="st9" d="M201.8,51.8c0,0-0.4-0.1-1-0.1V55l1-1V51.8z"/>
</g>
<polyline class="st13" points="245.1,53.1 245.1,43.1 242.1,46.8 "/>
<polyline class="st13" points="249.2,43.1 249.2,53.1 252.1,49.3 "/>
<polyline class="st14" points="264.3,53.1 264.3,43.1 261.4,46.8 "/>
<line class="st14" x1="267.5" y1="43.6" x2="273.4" y2="43.6"/>
<line class="st14" x1="267.5" y1="48.1" x2="271.4" y2="48.1"/>
<line class="st14" x1="267.5" y1="52.5" x2="269.4" y2="52.5"/>
<polyline class="st14" points="291.5,43.1 291.5,53.1 294.4,49.3 "/>
<line class="st14" x1="282.4" y1="43.6" x2="288.3" y2="43.6"/>
<line class="st14" x1="284.4" y1="48" x2="288.3" y2="48"/>
<line class="st14" x1="286.3" y1="52.5" x2="288.3" y2="52.5"/>
<rect y="92" class="st0" width="20.5" height="1.3"/>
<rect y="100" class="st0" width="20.5" height="1.3"/>
<rect y="108" class="st0" width="20.5" height="1.3"/>
<circle class="st13" cx="311.5" cy="49.2" r="4.5"/>
<line class="st13" x1="318.6" y1="56.1" x2="315" y2="52.6"/>
<path class="st0" d="M342.6,10.3c0,1.3-0.2,2.4-0.6,3.2c-0.2,0.5-0.6,0.9-1,1.3c-0.4,0.4-0.9,0.6-1.3,0.8c-0.5,0.2-1,0.3-1.6,0.5  c-0.6,0.1-1.2,0.2-1.6,0.2c-0.5,0-1,0-1.6,0c-0.5,0-0.9,0-1.3,0s-0.9-0.1-1.4-0.1c-0.5-0.1-1-0.2-1.4-0.3c-0.4-0.1-0.9-0.3-1.3-0.5  s-0.8-0.5-1.1-0.8c-0.3-0.3-0.6-0.7-0.8-1.1c-0.4-0.8-0.6-1.8-0.6-3.2c0-1.5,0.4-2.8,1.3-3.8C328.1,6,328,5.4,328,4.9  c0-0.7,0.2-1.4,0.5-2.1c0.7,0,1.3,0.1,1.8,0.4s1.1,0.6,1.8,1.2c0.9-0.2,1.9-0.3,2.9-0.3c0.9,0,1.8,0.1,2.7,0.3  c0.7-0.5,1.3-0.9,1.8-1.2c0.5-0.2,1.1-0.4,1.8-0.4c0.3,0.7,0.5,1.3,0.5,2.1c0,0.6-0.1,1.1-0.3,1.6C342.1,7.5,342.6,8.7,342.6,10.3z   M339.8,10c-0.4-0.5-1-0.8-1.8-0.8c-0.3,0-0.9,0.1-1.9,0.2c-0.4,0.1-0.9,0.1-1.5,0.1c-0.5,0-1,0-1.5-0.1c-1-0.1-1.6-0.2-1.9-0.2  c-0.7,0-1.3,0.3-1.8,0.8c-0.4,0.5-0.7,1.2-0.7,2c0,0.6,0.1,1.1,0.3,1.5c0.2,0.4,0.5,0.7,0.8,1c0.3,0.2,0.7,0.4,1.2,0.6  c0.5,0.1,0.9,0.2,1.3,0.3c0.4,0,0.9,0.1,1.4,0.1h1.6c0.5,0,1,0,1.4-0.1c0.4,0,0.9-0.1,1.3-0.3c0.5-0.1,0.8-0.3,1.2-0.6  c0.3-0.2,0.6-0.6,0.8-1c0.2-0.4,0.3-0.9,0.3-1.5C340.4,11.2,340.2,10.5,339.8,10z M338.4,13.4c-0.2,0.2-0.4,0.3-0.7,0.3  c-0.3,0-0.5-0.1-0.7-0.3s-0.3-0.5-0.4-0.7c-0.1-0.3-0.1-0.5-0.1-0.8s0-0.5,0.1-0.8s0.2-0.5,0.4-0.7c0.2-0.2,0.4-0.3,0.7-0.3  c0.3,0,0.5,0.1,0.7,0.3s0.3,0.5,0.4,0.7c0.1,0.3,0.1,0.5,0.1,0.8s0,0.5-0.1,0.8C338.7,13,338.6,13.2,338.4,13.4z M332.3,13.4  c-0.2,0.2-0.4,0.3-0.7,0.3c-0.3,0-0.5-0.1-0.7-0.3s-0.3-0.5-0.4-0.7c-0.1-0.3-0.1-0.5-0.1-0.8s0-0.5,0.1-0.8s0.2-0.5,0.4-0.7  c0.2-0.2,0.4-0.3,0.7-0.3c0.3,0,0.5,0.1,0.7,0.3s0.3,0.5,0.4,0.7c0.1,0.3,0.1,0.5,0.1,0.8s0,0.5-0.1,0.8  C332.7,13,332.5,13.2,332.3,13.4z"/>
<path class="st0" d="M324.6,29.5c0,1.3-0.2,2.4-0.6,3.2c-0.2,0.5-0.6,0.9-1,1.3c-0.4,0.4-0.9,0.6-1.3,0.8c-0.5,0.2-1,0.3-1.6,0.5  c-0.6,0.1-1.2,0.2-1.6,0.2c-0.5,0-1,0-1.6,0c-0.5,0-0.9,0-1.3,0s-0.9-0.1-1.4-0.1c-0.5-0.1-1-0.2-1.4-0.3s-0.9-0.3-1.3-0.5  s-0.8-0.5-1.1-0.8c-0.3-0.3-0.6-0.7-0.8-1.1c-0.4-0.8-0.6-1.8-0.6-3.2c0-1.5,0.4-2.8,1.3-3.8c-0.2-0.5-0.3-1.1-0.3-1.6  c0-0.7,0.2-1.4,0.5-2.1c0.7,0,1.3,0.1,1.8,0.4s1.1,0.6,1.8,1.2c0.9-0.2,1.9-0.3,2.9-0.3c0.9,0,1.8,0.1,2.7,0.3  c0.7-0.5,1.3-0.9,1.8-1.2c0.5-0.2,1.1-0.4,1.8-0.4c0.3,0.7,0.5,1.3,0.5,2.1c0,0.6-0.1,1.1-0.3,1.6C324.1,26.8,324.6,28,324.6,29.5z   M321.8,29.3c-0.4-0.5-1-0.8-1.8-0.8c-0.3,0-0.9,0.1-1.9,0.2c-0.4,0.1-0.9,0.1-1.5,0.1c-0.5,0-1,0-1.5-0.1c-1-0.1-1.6-0.2-1.9-0.2  c-0.7,0-1.3,0.3-1.8,0.8c-0.4,0.5-0.7,1.2-0.7,2c0,0.6,0.1,1.1,0.3,1.5s0.5,0.7,0.8,1c0.3,0.2,0.7,0.4,1.2,0.6  c0.5,0.1,0.9,0.2,1.3,0.3c0.4,0,0.9,0.1,1.4,0.1h1.6c0.5,0,1,0,1.4-0.1c0.4,0,0.9-0.1,1.3-0.3c0.5-0.1,0.8-0.3,1.2-0.6  c0.3-0.2,0.6-0.6,0.8-1c0.2-0.4,0.3-0.9,0.3-1.5C322.4,30.5,322.2,29.8,321.8,29.3z M320.4,32.7c-0.2,0.2-0.4,0.3-0.7,0.3  c-0.3,0-0.5-0.1-0.7-0.3s-0.3-0.5-0.4-0.7c-0.1-0.3-0.1-0.5-0.1-0.8s0-0.5,0.1-0.8s0.2-0.5,0.4-0.7c0.2-0.2,0.4-0.3,0.7-0.3  s0.5,0.1,0.7,0.3s0.3,0.5,0.4,0.7c0.1,0.3,0.1,0.5,0.1,0.8s0,0.5-0.1,0.8S320.6,32.5,320.4,32.7z M314.3,32.7  c-0.2,0.2-0.4,0.3-0.7,0.3s-0.5-0.1-0.7-0.3s-0.3-0.5-0.4-0.7c-0.1-0.3-0.1-0.5-0.1-0.8s0-0.5,0.1-0.8s0.2-0.5,0.4-0.7  s0.4-0.3,0.7-0.3c0.3,0,0.5,0.1,0.7,0.3s0.3,0.5,0.4,0.7c0.1,0.3,0.1,0.5,0.1,0.8s0,0.5-0.1,0.8C314.7,32.3,314.5,32.5,314.3,32.7z"/>
<path class="st1" d="M341.4,9.1c0,1.3-0.2,2.4-0.6,3.2c-0.2,0.5-0.6,0.9-1,1.3c-0.4,0.4-0.9,0.6-1.3,0.8c-0.5,0.2-1,0.3-1.6,0.5  c-0.6,0.1-1.2,0.2-1.6,0.2c-0.5,0-1,0-1.6,0c-0.5,0-0.9,0-1.3,0S331.5,15,331,15c-0.5-0.1-1-0.2-1.4-0.3s-0.9-0.3-1.3-0.5  s-0.8-0.5-1.1-0.8c-0.3-0.3-0.6-0.7-0.8-1.1c-0.4-0.8-0.6-1.8-0.6-3.2c0-1.5,0.4-2.8,1.3-3.8c-0.2-0.5-0.3-1.1-0.3-1.6  c0-0.7,0.2-1.4,0.5-2.1c0.7,0,1.3,0.1,1.8,0.4s1.1,0.6,1.8,1.2c0.9-0.2,1.9-0.3,2.9-0.3c0.9,0,1.8,0.1,2.7,0.3  c0.7-0.5,1.3-0.9,1.8-1.2c0.5-0.2,1.1-0.4,1.8-0.4c0.3,0.7,0.5,1.3,0.5,2.1c0,0.6-0.1,1.1-0.3,1.6C341,6.3,341.4,7.6,341.4,9.1z   M338.6,8.8c-0.4-0.5-1-0.8-1.8-0.8c-0.3,0-0.9,0.1-1.9,0.2c-0.4,0.1-0.9,0.1-1.5,0.1c-0.5,0-1,0-1.5-0.1c-1-0.1-1.6-0.2-1.9-0.2  c-0.7,0-1.3,0.3-1.8,0.8c-0.4,0.5-0.7,1.2-0.7,2c0,0.6,0.1,1.1,0.3,1.5c0.2,0.4,0.5,0.7,0.8,1c0.3,0.2,0.7,0.4,1.2,0.6  c0.5,0.1,0.9,0.2,1.3,0.3c0.4,0,0.9,0.1,1.4,0.1h1.6c0.5,0,1,0,1.4-0.1c0.4,0,0.9-0.1,1.3-0.3c0.5-0.1,0.8-0.3,1.2-0.6  c0.3-0.2,0.6-0.6,0.8-1c0.2-0.4,0.3-0.9,0.3-1.5C339.3,10,339.1,9.4,338.6,8.8z M337.3,12.3c-0.2,0.2-0.4,0.3-0.7,0.3  c-0.3,0-0.5-0.1-0.7-0.3s-0.3-0.5-0.4-0.7c-0.1-0.3-0.1-0.5-0.1-0.8s0-0.5,0.1-0.8s0.2-0.5,0.4-0.7c0.2-0.2,0.4-0.3,0.7-0.3  c0.3,0,0.5,0.1,0.7,0.3s0.3,0.5,0.4,0.7c0.1,0.3,0.1,0.5,0.1,0.8s0,0.5-0.1,0.8C337.6,11.8,337.4,12.1,337.3,12.3z M331.2,12.3  c-0.2,0.2-0.4,0.3-0.7,0.3c-0.3,0-0.5-0.1-0.7-0.3s-0.3-0.5-0.4-0.7c-0.1-0.3-0.1-0.5-0.1-0.8s0-0.5,0.1-0.8s0.2-0.5,0.4-0.7  c0.2-0.2,0.4-0.3,0.7-0.3c0.3,0,0.5,0.1,0.7,0.3s0.3,0.5,0.4,0.7c0.1,0.3,0.1,0.5,0.1,0.8s0,0.5-0.1,0.8  C331.5,11.8,331.4,12.1,331.2,12.3z"/>
<g>
	<path class="st9" d="M329.4,11.6c0.1,0.3,0.2,0.5,0.4,0.7c0.2,0.2,0.4,0.3,0.7,0.3l0,0c-0.1-0.2-0.1-0.5-0.1-0.7   c0-0.3,0-0.5,0.1-0.8s0.2-0.5,0.4-0.7c0.2-0.2,0.4-0.3,0.6-0.3V10c-0.1-0.3-0.2-0.5-0.4-0.7c0,0-0.1,0-0.1-0.1   c-0.6,0.1-1.1,0.3-1.5,0.8c-0.1,0.1-0.1,0.2-0.2,0.3c0,0.2-0.1,0.3-0.1,0.5C329.3,11,329.3,11.3,329.4,11.6z"/>
	<path class="st9" d="M339,9.4c0.2,0.4,0.3,0.9,0.3,1.4c0,0.6-0.1,1.1-0.3,1.5c0,0.1-0.1,0.2-0.1,0.2c0,0.1,0,0.2,0,0.2   c-0.1,0.3-0.2,0.5-0.4,0.7c-0.2,0.2-0.4,0.3-0.7,0.3c-0.1,0-0.2,0-0.4-0.1c-0.1,0-0.2,0.1-0.3,0.1c-0.5,0.1-0.9,0.2-1.3,0.3   c-0.4,0-0.9,0.1-1.4,0.1h-1.6c-0.5,0-1,0-1.4-0.1c-0.4,0-0.9-0.1-1.3-0.3c-0.3-0.1-0.5-0.2-0.7-0.3c0.2,0.4,0.4,0.7,0.7,0.9   c0.3,0.2,0.7,0.4,1.1,0.5c0.5,0.1,0.9,0.1,1.3,0.1s0.9,0,1.3,0c0.6,0,1.1,0,1.6,0s1-0.1,1.6-0.2c0.6-0.1,1.1-0.3,1.6-0.5   s0.9-0.5,1.3-0.8c0.1-0.1,0.3-0.3,0.4-0.4c0.1-0.4,0.2-0.7,0.2-1.2c0-0.8-0.2-1.4-0.7-2C339.6,9.7,339.3,9.5,339,9.4z"/>
	<path class="st9" d="M327.4,13.4c-0.4-0.8-0.6-1.8-0.6-3.2c0-1.5,0.4-2.8,1.3-3.8c-0.2-0.5-0.3-1.1-0.3-1.6c0-0.7,0.2-1.4,0.5-2.1   c0.7,0,1.3,0.1,1.8,0.4s1.1,0.6,1.8,1.2c0.9-0.2,1.9-0.3,2.9-0.3c0.9,0,1.8,0.1,2.7,0.3c0.7-0.5,1.3-0.9,1.8-1.2   c0.3-0.1,0.7-0.2,1-0.3c-0.1-0.4-0.2-0.8-0.4-1.2c-0.7,0-1.3,0.1-1.8,0.4c-0.5,0.2-1.1,0.6-1.8,1.2c-0.8-0.2-1.7-0.3-2.7-0.3   s-2,0.1-2.9,0.3c-0.7-0.5-1.3-0.9-1.8-1.2s-1.1-0.4-1.8-0.4c-0.3,0.7-0.5,1.3-0.5,2.1c0,0.6,0.1,1.1,0.3,1.6   c-0.9,1-1.3,2.3-1.3,3.8c0,1.3,0.2,2.4,0.6,3.2c0.2,0.4,0.5,0.8,0.8,1.1c0.2,0.2,0.4,0.3,0.6,0.5C327.5,13.7,327.4,13.6,327.4,13.4   z"/>
	<path class="st9" d="M335.3,10.8c0,0.3,0,0.5,0.1,0.8s0.2,0.5,0.4,0.7c0.2,0.2,0.4,0.3,0.7,0.3l0,0c-0.1-0.2-0.1-0.5-0.1-0.7   c0-0.3,0-0.5,0.1-0.8s0.2-0.5,0.4-0.7c0.2-0.2,0.4-0.3,0.6-0.3V10c-0.1-0.3-0.2-0.5-0.4-0.7l0,0c-0.3,0-0.6,0.1-1.1,0.1   c-0.1,0-0.3,0-0.4,0c-0.1,0.2-0.2,0.4-0.3,0.6C335.4,10.3,335.3,10.5,335.3,10.8z"/>
</g>
<path class="st0" d="M334.3,43l1.6,3.3l3.6,0.5c0.3,0,0.5,0.5,0.2,0.7l-2.6,2.5l0.6,3.6c0.1,0.3-0.3,0.6-0.6,0.4l-3.2-1.7l-3.2,1.7  c-0.3,0.2-0.7-0.1-0.6-0.4l0.6-3.6l-2.6-2.5c-0.2-0.2-0.1-0.7,0.2-0.7l3.6-0.5l1.6-3.3C333.7,42.7,334.1,42.7,334.3,43z"/>
<g>
	<path class="st1" d="M361.1,49.8c-0.9-1.4-2-2.6-3.5-3.4c-1.5-0.9-3-1.3-4.7-1.3c-1.6,0-3.2,0.4-4.7,1.3c-1.5,0.9-2.6,2-3.5,3.4   c-0.1,0.2-0.2,0.4-0.2,0.6s0.1,0.4,0.2,0.6c0.9,1.4,2,2.6,3.5,3.4c1.5,0.9,3,1.3,4.7,1.3c1.6,0,3.2-0.4,4.7-1.3   c1.5-0.9,2.6-2,3.5-3.4c0.1-0.2,0.2-0.4,0.2-0.6C361.3,50.2,361.2,50,361.1,49.8z M357,53.5c-1.2,0.8-2.6,1.1-4,1.1   c-1.5,0-2.8-0.4-4-1.1c-1.2-0.8-2.3-1.8-3.1-3c0.9-1.5,2.1-2.6,3.5-3.3c-0.4,0.6-0.6,1.3-0.6,2.1c0,1.1,0.4,2.1,1.2,2.9   c0.8,0.8,1.8,1.2,2.9,1.2s2.1-0.4,2.9-1.2s1.2-1.8,1.2-2.9c0-0.8-0.2-1.5-0.6-2.1c1.4,0.7,2.6,1.8,3.5,3.3   C359.3,51.7,358.2,52.7,357,53.5z"/>
</g>
<g>
	<polygon class="st15" points="15.5,139.5 17,139.5 17,138.5 15.5,138.5 15.5,136 17.4,136 17.4,135 14.3,135 14.3,143.3    15.5,143.3  "/>
	<path class="st15" d="M12,147.4v-1.8c-0.8,0-1.6,0.5-2.2,0.9C10.4,146.9,11.2,147.4,12,147.4z"/>
	<path class="st15" d="M12,127.1l-9.5,6v11l9.5,12l9.5-12v-11L12,127.1z M5.9,140.6v-3c0-2.5,1.3-2.7,2-2.7c1.3,0,1.7,0.8,1.7,1.8   c0,0.4,0,0.6-0.1,1h-1v-0.4c0-0.9-0.2-1.4-0.6-1.4c-0.5,0-0.7,0.3-0.7,1.4v3.8c0,1,0.2,1.4,0.7,1.4c0.3,0,0.6-0.3,0.6-1v-0.8h1.2   v0.8c0,1.3-0.6,2-1.8,2C7.2,143.4,5.9,143.1,5.9,140.6z M19.5,143.4l-7.5,9.5v-4.3c-2.1,0-3.9-2.1-3.9-2.1s1.7-2.1,3.9-2.1v-15   l7.5,4.7V143.4z"/>
	<path class="st15" d="M15.9,146.5c0,0-1.7-2.1-3.9-2.1v1.1c0.8,0,1.6,0.5,2.2,0.9c-0.6,0.5-1.4,0.9-2.2,0.9v1.1   C14.1,148.5,15.9,146.5,15.9,146.5z"/>
</g>
<circle class="st16" cx="56.7" cy="102.3" r="7"/>
<g>
	<path class="st17" d="M55.9,104v-0.3c0-0.4,0.1-0.7,0.2-0.9s0.4-0.5,0.7-0.7c0.4-0.3,0.6-0.5,0.7-0.7s0.2-0.4,0.2-0.6   c0-0.3-0.1-0.5-0.3-0.6S57,100,56.6,100c-0.3,0-0.6,0-0.9,0.1s-0.5,0.2-0.8,0.3l-0.4-0.9c0.7-0.4,1.4-0.6,2.1-0.6   c0.6,0,1.1,0.2,1.5,0.5s0.6,0.7,0.6,1.3c0,0.2,0,0.5-0.1,0.7s-0.2,0.4-0.3,0.5s-0.4,0.4-0.7,0.7c-0.3,0.2-0.5,0.4-0.6,0.6   s-0.2,0.4-0.2,0.6v0.2C56.8,104,55.9,104,55.9,104z M55.7,105.6c0-0.5,0.2-0.7,0.7-0.7c0.2,0,0.4,0.1,0.5,0.2s0.2,0.3,0.2,0.5   s-0.1,0.4-0.2,0.5s-0.3,0.2-0.5,0.2s-0.4-0.1-0.5-0.2S55.7,105.8,55.7,105.6z"/>
</g>
<polyline class="st18" points="93.3,99.9 97,103.6 100.7,99.9 "/>
<g id="XMLID_496_">
	<path id="XMLID_497_" class="st1" d="M367.7,8.5l3.4,1.3l1.3,4.2c0.1,0.3,0.4,0.4,0.6,0.2l1.9-1.5c0.2-0.2,0.5-0.2,0.7,0l3.4,2.5   c0.2,0.2,0.6,0,0.6-0.2l2.5-12c0.1-0.3-0.2-0.6-0.5-0.5l-13.9,5.4C367.4,7.9,367.4,8.4,367.7,8.5z M372.2,9.1l6.6-4.1   c0.1-0.1,0.2,0.1,0.1,0.2l-5.5,5.1c-0.2,0.2-0.3,0.4-0.4,0.7l-0.2,1.4c0,0.2-0.3,0.2-0.3,0l-0.7-2.5C371.8,9.5,371.9,9.2,372.2,9.1   z"/>
</g>
<g>
	<path class="st9" d="M368.7,8.7L382,3.6l0.2-0.8c0.1-0.3-0.2-0.6-0.5-0.5l-13.9,5.4c-0.3,0.1-0.3,0.6,0,0.7L368.7,8.7   C368.6,8.8,368.6,8.8,368.7,8.7z"/>
	<path class="st9" d="M373.9,13.3l0.2-1.4c0-0.3,0.2-0.5,0.4-0.7l5.5-5.1c0.1-0.1,0-0.3-0.1-0.2l-5.2,3.2l-1.2,1.1   c-0.2,0.2-0.3,0.4-0.4,0.7l-0.1,0.5l0.5,1.9C373.7,13.5,373.9,13.5,373.9,13.3z"/>
	<path class="st9" d="M372.1,10.8l-0.8-0.3l1.1,3.5c0.1,0.3,0.4,0.4,0.6,0.2l0.1-0.1L372.1,10.8z"/>
</g>
<polyline class="st12" points="161,99.2 166,104.2 171,99.2 "/>
<polyline class="st19" points="215,106.2 206,97.2 197,106.2 "/>
<path class="st20" d="M252.3,99.5l-8.1,7.8l-2.3-2.2l0,0l-2.7-2.6l2.3-2.2l2.7,2.6l5.8-5.6L252.3,99.5z"/>
<path class="st1" d="M382.5,41c-3.3,0-6,2.7-6,6s6,10,6,10s6-6.6,6-10C388.5,43.7,385.8,41,382.5,41z M382.5,50.4c-1.7,0-3-1.3-3-3  s1.3-3,3-3s3,1.3,3,3C385.5,49.1,384.2,50.4,382.5,50.4z"/>
<g>
	<path class="st9" d="M383.5,51.4c1.7,0,3-1.3,3-3c0-1.1-0.6-2-1.4-2.6c0.3,0.5,0.4,1,0.4,1.6c0,1.7-1.3,3-3,3   c-0.6,0-1.1-0.2-1.6-0.4C381.5,50.8,382.4,51.4,383.5,51.4z"/>
	<path class="st9" d="M377.5,48c0-3.3,2.7-6,6-6c1.4,0,2.7,0.5,3.7,1.3c-1.1-1.4-2.8-2.3-4.7-2.3c-3.3,0-6,2.7-6,6s6,10,6,10   s0,0,0.1-0.1C380.9,54.9,377.5,50.5,377.5,48z"/>
</g>
<path class="st1" d="M380.6,36.2v-4.8c0-1.2-0.3-2-1.4-2c-0.9,0-1.6,0.6-1.9,1.1c-0.1,0.2-0.1,0.5-0.1,0.7v5h-3.4c0,0,0-8.4,0-9.2  h3.4v1.6l0,0l0,0l0,0c0.4-0.6,1.4-1.6,3.1-1.6c2.1,0,3.7,1.4,3.7,4.1v5.1C384,36.2,380.6,36.2,380.6,36.2z M369,26.9h3.4v9.3H369  V26.9z M370.7,25.6c-0.9,0-1.7-0.7-1.7-1.7c0-0.9,0.8-1.7,1.7-1.7c0.9,0,1.7,0.7,1.7,1.7C372.4,24.9,371.7,25.6,370.7,25.6z"/>
<g>
	<path class="st9" d="M370.1,25.5c-0.1-0.2-0.1-0.4-0.1-0.5c0-0.9,0.8-1.7,1.7-1.7c0.2,0,0.4,0,0.6,0.1c-0.2-0.6-0.9-1.1-1.6-1.1   c-0.9,0-1.7,0.7-1.7,1.7C369,24.7,369.5,25.3,370.1,25.5z"/>
	<path class="st9" d="M378.2,27.9v1.6c0.4-0.6,1.4-1.6,3.1-1.6c0.8,0,1.4,0.2,2,0.5c-0.7-1-1.7-1.5-3-1.5c-1.2,0-2,0.5-2.6,1H378.2z   "/>
	<path class="st9" d="M378.2,29.6L378.2,29.6C378.2,29.5,378.2,29.6,378.2,29.6L378.2,29.6z"/>
	<path class="st9" d="M374.8,36.2c0-2.2,0-7.6,0-8.2h2.4v-1h-3.4c0,0.8,0,9.2,0,9.2H374.8z"/>
	<polygon class="st9" points="370,27.9 372.4,27.9 372.4,26.9 369,26.9 369,36.2 370,36.2  "/>
	<path class="st9" d="M381.6,36.2v-3.8c0-1.1-0.2-1.8-1.1-2c0.1,0.3,0.1,0.6,0.1,1v4.8H381.6z"/>
</g>
<line class="st21" x1="281.4" y1="105.7" x2="288.1" y2="98.9"/>
<line class="st21" x1="288.1" y1="105.7" x2="281.4" y2="98.9"/>
<polyline class="st22" points="261.7,101.9 265.1,105.3 271.9,98.5 "/>
<g>
	<g>
		<path class="st23" d="M180.5,72h-12c-0.8,0-1.5,0.7-1.5,1.5v20.4c0,0.8,7.5-6,7.5-6s7.5,6.9,7.5,6V73.5    C182,72.7,181.3,72,180.5,72z"/>
	</g>
</g>
<ellipse class="st23" cx="174.5" cy="79.5" rx="3.5" ry="3.5"/>
<circle class="st20" cx="58.9" cy="144.1" r="8.9"/>
<polyline class="st24" points="59.6,141.1 56.6,144.1 59.6,147.1 "/>
<circle class="st20" cx="78.9" cy="144.1" r="8.9"/>
<polyline class="st24" points="78.1,147.1 81.1,144.1 78.1,141.1 "/>
<g>
	<g>
		<circle class="st0" cx="59.5" cy="182.3" r="7.8"/>
		<path class="st0" d="M68.9,189.3c1.5-2,2.3-4.4,2.3-7c0-6.5-5.3-11.8-11.8-11.8s-11.8,5.3-11.8,11.8c0,2.6,0.9,5.1,2.3,7    c-3.6,2.8-5.8,7.1-5.8,12c0,5.3,5.8,8.7,15.3,8.7s15.3-3.3,15.3-8.7C74.8,196.4,72.5,192.1,68.9,189.3z"/>
	</g>
	<circle class="st2" cx="59.5" cy="182.3" r="7.8"/>
	<path class="st2" d="M70.8,201.3c0,6.2-22.5,6.2-22.5,0s5-11.3,11.3-11.3S70.8,195,70.8,201.3z"/>
</g>
<path class="st20" d="M108.7,188.7l3.3,0.5c0.8,0.1,0.8,1.3,0,1.4l-3.3,0.5c-2.5,0.4-4.5,2.4-4.9,4.9l-0.5,3.3  c-0.1,0.8-1.3,0.8-1.4,0l-0.5-3.3c-0.4-2.5-2.4-4.5-4.9-4.9l-3.3-0.5c-0.8-0.1-0.8-1.3,0-1.4l3.3-0.5c2.5-0.4,4.5-2.4,4.9-4.9  l0.5-3.3c0.1-0.8,1.3-0.8,1.4,0l0.5,3.3C104.2,186.3,106.1,188.3,108.7,188.7z"/>
<path class="st20" d="M174.1,182.5l3.3,0.5c0.8,0.1,0.8,1.3,0,1.4l-3.3,0.5c-2.5,0.4-4.5,2.4-4.9,4.9l-0.5,3.3  c-0.1,0.8-1.3,0.8-1.4,0l-0.5-3.3c-0.4-2.5-2.4-4.5-4.9-4.9l-3.3-0.5c-0.8-0.1-0.8-1.3,0-1.4l3.3-0.5c2.5-0.4,4.5-2.4,4.9-4.9  l0.5-3.3c0.1-0.8,1.3-0.8,1.4,0l0.5,3.3C169.6,180.1,171.6,182,174.1,182.5z"/>
<path class="st20" d="M114,203.3l2,0.3c0.5,0.1,0.5,0.8,0,0.8l-2,0.3c-1.5,0.2-2.7,1.4-3,3l-0.3,2c-0.1,0.5-0.8,0.5-0.8,0l-0.3-2  c-0.2-1.5-1.4-2.7-3-3l-2-0.3c-0.5-0.1-0.5-0.8,0-0.8l2-0.3c1.5-0.2,2.7-1.4,3-3l0.3-2c0.1-0.5,0.8-0.5,0.8,0l0.3,2  C111.3,201.8,112.5,203,114,203.3z"/>
<path class="st20" d="M109.6,318.2l2,0.3c0.5,0.1,0.5,0.8,0,0.8l-2,0.3c-1.5,0.2-2.7,1.4-3,3l-0.3,2c-0.1,0.5-0.8,0.5-0.8,0l-0.3-2  c-0.2-1.5-1.4-2.7-3-3l-2-0.3c-0.5-0.1-0.5-0.8,0-0.8l2-0.3c1.5-0.2,2.7-1.4,3-3l0.3-2c0.1-0.5,0.8-0.5,0.8,0l0.3,2  C106.9,316.7,108.1,317.9,109.6,318.2z"/>
<path class="st20" d="M237.4,319.4l2,0.3c0.5,0.1,0.5,0.8,0,0.8l-2,0.3c-1.5,0.2-2.7,1.4-3,3l-0.3,2c-0.1,0.5-0.8,0.5-0.8,0l-0.3-2  c-0.2-1.5-1.4-2.7-3-3l-2-0.3c-0.5-0.1-0.5-0.8,0-0.8l2-0.3c1.5-0.2,2.7-1.4,3-3l0.3-2c0.1-0.5,0.8-0.5,0.8,0l0.3,2  C234.6,317.9,235.8,319.1,237.4,319.4z"/>
<path class="st20" d="M191.7,353.2l2,0.3c0.5,0.1,0.5,0.8,0,0.8l-2,0.3c-1.5,0.2-2.7,1.4-3,3l-0.3,2c-0.1,0.5-0.8,0.5-0.8,0l-0.3-2  c-0.2-1.5-1.4-2.7-3-3l-2-0.3c-0.5-0.1-0.5-0.8,0-0.8l2-0.3c1.5-0.2,2.7-1.4,3-3l0.3-2c0.1-0.5,0.8-0.5,0.8,0l0.3,2  C189,351.8,190.2,353,191.7,353.2z"/>
<path class="st20" d="M166.9,305.7l1,0.2c0.2,0,0.2,0.4,0,0.4l-1,0.2c-0.8,0.1-1.4,0.7-1.5,1.5l-0.2,1c0,0.2-0.4,0.2-0.4,0l-0.2-1  c-0.1-0.8-0.7-1.4-1.5-1.5l-1-0.2c-0.2,0-0.2-0.4,0-0.4l1-0.2c0.8-0.1,1.4-0.7,1.5-1.5l0.2-1c0-0.2,0.4-0.2,0.4,0l0.2,1  C165.5,305,166.1,305.6,166.9,305.7z"/>
<path class="st20" d="M148,316.5l1.3,0.2c0.3,0.1,0.3,0.5,0,0.6l-1.3,0.2c-1,0.2-1.8,0.9-1.9,1.9l-0.2,1.3c-0.1,0.3-0.5,0.3-0.6,0  l-0.2-1.3c-0.2-1-0.9-1.8-1.9-1.9l-1.3-0.2c-0.3-0.1-0.3-0.5,0-0.6l1.3-0.2c1-0.2,1.8-0.9,1.9-1.9l0.2-1.3c0.1-0.3,0.5-0.3,0.6,0  l0.2,1.3C146.2,315.6,147,316.3,148,316.5z"/>
<path class="st20" d="M20.5,307.5l2,0.3c0.5,0.1,0.5,0.8,0,0.8l-2,0.3c-1.5,0.2-2.7,1.4-3,3l-0.3,2c-0.1,0.5-0.8,0.5-0.8,0l-0.3-2  c-0.2-1.5-1.4-2.7-3-3l-2-0.3c-0.5-0.1-0.5-0.8,0-0.8l2-0.3c1.5-0.2,2.7-1.4,3-3l0.3-2c0.1-0.5,0.8-0.5,0.8,0l0.3,2  C17.8,306.1,19,307.3,20.5,307.5z"/>
<path class="st20" d="M159.2,190.4l2,0.3c0.5,0.1,0.5,0.8,0,0.8l-2,0.3c-1.5,0.2-2.7,1.4-3,3l-0.3,2c-0.1,0.5-0.8,0.5-0.8,0l-0.3-2  c-0.2-1.5-1.4-2.7-3-3l-2-0.3c-0.5-0.1-0.5-0.8,0-0.8l2-0.3c1.5-0.2,2.7-1.4,3-3l0.3-2c0.1-0.5,0.8-0.5,0.8,0l0.3,2  C156.5,189,157.7,190.2,159.2,190.4z"/>
<path class="st20" d="M247.7,252.5l2,0.3c0.5,0.1,0.5,0.8,0,0.8l-2,0.3c-1.5,0.2-2.7,1.4-3,3l-0.3,2c-0.1,0.5-0.8,0.5-0.8,0l-0.3-2  c-0.2-1.5-1.4-2.7-3-3l-2-0.3c-0.5-0.1-0.5-0.8,0-0.8l2-0.3c1.5-0.2,2.7-1.4,3-3l0.3-2c0.1-0.5,0.8-0.5,0.8,0l0.3,2  C245,251.1,246.2,252.3,247.7,252.5z"/>
<path class="st20" d="M11.1,239.2l2,0.3c0.5,0.1,0.5,0.8,0,0.8l-2,0.3c-1.5,0.2-2.7,1.4-3,3l-0.3,2c-0.1,0.5-0.8,0.5-0.8,0l-0.3-2  c-0.2-1.5-1.4-2.7-3-3l-2-0.3c-0.5-0.1-0.5-0.8,0-0.8l2-0.3c1.5-0.2,2.7-1.4,3-3l0.3-2c0.1-0.5,0.8-0.5,0.8,0l0.3,2  C8.4,237.8,9.6,239,11.1,239.2z"/>
<circle class="st20" cx="11.5" cy="228.2" r="2"/>
<circle class="st20" cx="20.5" cy="328" r="2"/>
<circle class="st20" cx="110.3" cy="239" r="2"/>
<circle class="st20" cx="11.9" cy="316" r="2"/>
<circle class="st20" cx="98.8" cy="314" r="2"/>
<circle class="st20" cx="146" cy="179.9" r="2"/>
<circle class="st20" cx="250.1" cy="247.2" r="2"/>
<circle class="st20" cx="226.5" cy="314" r="2"/>
<circle class="st20" cx="159.7" cy="299.9" r="1"/>
<circle class="st20" cx="179.1" cy="298.9" r="1"/>
<circle class="st20" cx="158.7" cy="317.8" r="1"/>
<circle class="st20" cx="163" cy="330.2" r="1"/>
<circle class="st0" cx="81.5" cy="215.5" r="2"/>
<circle class="st0" cx="81.1" cy="223.9" r="2.4"/>
<circle class="st0" cx="43.1" cy="239" r="2.4"/>
<circle class="st20" cx="69.9" cy="217.5" r="2"/>
<circle class="st20" cx="76.8" cy="212.8" r="2"/>
<circle class="st20" cx="77.9" cy="222.3" r="2"/>
<g>
	<g>
		<circle class="st0" cx="26.5" cy="235.3" r="7.8"/>
		<path class="st0" d="M35.9,242.3c1.5-2,2.3-4.4,2.3-7c0-6.5-5.3-11.8-11.8-11.8s-11.8,5.3-11.8,11.8c0,2.6,0.9,5.1,2.3,7    c-3.6,2.8-5.8,7.1-5.8,12c0,5.3,5.8,8.7,15.3,8.7s15.3-3.3,15.3-8.7C41.8,249.4,39.5,245.1,35.9,242.3z"/>
	</g>
	<circle class="st2" cx="26.5" cy="235.3" r="7.8"/>
	<path class="st2" d="M37.8,254.3c0,6.2-22.5,6.2-22.5,0s5-11.3,11.3-11.3S37.8,248,37.8,254.3z"/>
</g>
<g>
	<g>
		<circle class="st0" cx="92.5" cy="235.3" r="7.8"/>
		<path class="st0" d="M101.9,242.3c1.5-2,2.3-4.4,2.3-7c0-6.5-5.3-11.8-11.8-11.8s-11.8,5.3-11.8,11.8c0,2.6,0.9,5.1,2.3,7    c-3.6,2.8-5.8,7.1-5.8,12c0,5.3,5.8,8.7,15.3,8.7s15.3-3.3,15.3-8.7C107.8,249.4,105.5,245.1,101.9,242.3z"/>
	</g>
	<circle class="st2" cx="92.5" cy="235.3" r="7.8"/>
	<path class="st2" d="M103.8,254.3c0,6.2-22.5,6.2-22.5,0s5-11.3,11.3-11.3S103.8,248,103.8,254.3z"/>
</g>
<g>
	<polygon class="st25" points="190.8,220.7 207,193.8 223.2,220.7 207,230.2  "/>
	<polyline class="st25" points="190.8,220.7 207,213.3 223.2,220.7  "/>
	<polygon class="st25" points="190.8,225 207,247.8 223.2,225 207,234.7  "/>
	<line class="st26" x1="207" y1="247.8" x2="207" y2="234.7"/>
	<line class="st26" x1="207" y1="230.2" x2="207" y2="193.8"/>
</g>
<circle class="st20" cx="188" cy="204" r="2"/>
<circle class="st20" cx="186" cy="210.1" r="2"/>
<path class="st25" d="M90,341.1H29c-1.1,0-2-0.9-2-2v-43.3c0-1.1,0.9-2,2-2h61c1.1,0,2,0.9,2,2v43.3C92,340.2,91.1,341.1,90,341.1z"/>
<polyline class="st26" points="48,359.2 59.5,352 71,359.2 "/>
<line class="st26" x1="59.5" y1="352" x2="59.5" y2="341.1"/>
<polyline class="st26" points="48,293.8 59.5,286.7 71,293.8 "/>
<path class="st3" d="M86.8,337H32.2c-0.5,0-1-0.4-1-1v-39.2c0-0.6,0.4-1,1-1h54.6c0.5,0,1,0.4,1,1V336C87.8,336.6,87.4,337,86.8,337  z"/>
<rect x="24.3" y="293.8" class="st25" width="70.4" height="4.4"/>
<line class="st26" x1="34.6" y1="305.9" x2="58.7" y2="305.9"/>
<line class="st26" x1="34.6" y1="312.3" x2="58.7" y2="312.3"/>
<line class="st26" x1="34.6" y1="318.7" x2="58.7" y2="318.7"/>
<line class="st26" x1="34.6" y1="325.1" x2="58.7" y2="325.1"/>
<line class="st26" x1="34.6" y1="331.5" x2="58.7" y2="331.5"/>
<rect x="65.2" y="306.1" class="st25" width="18.3" height="18.3"/>
<polyline class="st26" points="65.2,320.3 71.6,313.4 77.5,320.6 83.5,317 "/>
<circle class="st26" cx="78.2" cy="312.1" r="2.2"/>
<path class="st20" d="M104,330.7l3.3,0.5c0.8,0.1,0.8,1.3,0,1.4l-3.3,0.5c-2.5,0.4-4.5,2.4-4.9,4.9l-0.5,3.3c-0.1,0.8-1.3,0.8-1.4,0  l-0.5-3.3c-0.4-2.5-2.4-4.5-4.9-4.9l-3.3-0.5c-0.8-0.1-0.8-1.3,0-1.4l3.3-0.5c2.5-0.4,4.5-2.4,4.9-4.9l0.5-3.3  c0.1-0.8,1.3-0.8,1.4,0l0.5,3.3C99.5,328.3,101.5,330.3,104,330.7z"/>
<path class="st26" d="M167.9,336.3l18.9-38.4l30,28.4c3-0.9,6.3-0.8,9.3,0.7c6.2,3.1,8.8,10.6,5.8,16.9c-2.7,5.6-9.1,8.2-14.9,6.5  l-13.8,12.3l-7.9-3.9l15-13.3c-0.6-0.9-1.1-1.8-1.5-2.8L167.9,336.3z"/>
<line class="st26" x1="150" y1="324.8" x2="166.5" y2="323.2"/>
<line class="st26" x1="167.7" y1="294.2" x2="174.6" y2="307"/>
<line class="st26" x1="170" y1="315.3" x2="145.2" y2="304.5"/>
<path class="st3" d="M212.4,341.3c0.2,0.7,0.6,1.3,1,1.9l0.1,0.2c1.8-2.2,4.5-3.7,7.6-3.7c2.7,0,5.1,1.1,6.8,2.8  c0.1-0.2,0.2-0.3,0.3-0.5c2.1-4.3,0.3-9.4-3.9-11.5c-1.2-0.6-2.5-0.9-3.8-0.9c-0.9,0-1.7,0.1-2.6,0.4l-2.2,0.7L188,304.5l-14.1,28.7  l37.7,5.9L212.4,341.3z"/>
<line class="st26" x1="179.1" y1="331.8" x2="192.8" y2="303.9"/>
<line class="st26" x1="190.1" y1="328.5" x2="198.8" y2="310.9"/>
<polyline class="st0" points="215,84.2 206,75.2 197,84.2 "/>
<path class="st27" d="M24.4,376.5c0-4.4-3.9-8-8.4-7.5c-3.3,0.4-6.1,3-6.6,6.3c-0.4,2.5,0.5,4.9,2.1,6.5c1.1,1.1,1.7,2.7,1.7,4.2  v3.7c0,1.7,1.1,3.3,2.8,3.6c2.3,0.5,4.3-1.3,4.3-3.5V386c0-1.6,0.6-3.1,1.7-4.2C23.6,380.6,24.4,378.6,24.4,376.5z"/>
<line class="st27" x1="13.7" y1="386.3" x2="17.6" y2="386.3"/>
<line class="st27" x1="13.7" y1="389.3" x2="16.6" y2="389.3"/>
<line class="st27" x1="16.8" y1="379.3" x2="13.4" y2="376.7"/>
<line class="st27" x1="16.9" y1="379.3" x2="20.4" y2="376.7"/>
<line class="st27" x1="16.9" y1="382.7" x2="16.9" y2="379.2"/>
<line class="st27" x1="5.3" y1="376.7" x2="1.2" y2="376.8"/>
<line class="st27" x1="6.2" y1="373.6" x2="3.3" y2="370.8"/>
<line class="st27" x1="6.3" y1="379.8" x2="3.5" y2="382.7"/>
<line class="st27" x1="28.3" y1="376.7" x2="32.3" y2="376.8"/>
<line class="st27" x1="27.3" y1="373.6" x2="30.3" y2="370.8"/>
<line class="st27" x1="27.2" y1="379.8" x2="30" y2="382.7"/>
<path class="st27" d="M58.4,372.6c-2,1.3-5.2,2.1-8.7,2.1s-6.6-0.8-8.7-2.1c-0.9,2-1.5,4.3-1.5,6.7c0,11,10.2,15.9,10.2,15.9  s10.2-4.8,10.2-15.9C59.9,376.8,59.4,374.5,58.4,372.6z"/>
<path class="st27" d="M56.6,376.7c0.2,0.9,0.3,1.7,0.3,2.6c0,6.8-4.8,10.9-7.2,12.4c-0.6-0.4-1.3-0.9-2.1-1.6"/>
<path class="st27" d="M43.8,385c-0.7-1.6-1.2-3.5-1.2-5.7c0-0.9,0.1-1.8,0.3-2.6c1.1,0.4,2.4,0.7,3.7,0.8"/>
<path class="st27" d="M46.7,374v-2c0-1.7,1.4-3,3-3l0,0c1.7,0,3,1.4,3,3v2"/>
<path class="st28" d="M52.4,382c0-1.4-1.2-2.6-2.6-2.6s-2.6,1.2-2.6,2.6c0,1,0.6,1.9,1.4,2.3v1.3c0,0.7,0.5,1.2,1.2,1.2  s1.2-0.5,1.2-1.2v-1.3C51.8,383.9,52.4,383,52.4,382z"/>
<polygon class="st27" points="76.8,383.7 84.5,383.7 90.5,370.6 82.8,370.6 "/>
<polygon class="st29" points="85.5,383.7 77.8,383.7 71.8,370.6 79.5,370.6 "/>
<circle class="st30" cx="81.2" cy="386.1" r="9"/>
<polygon class="st29" points="81.2,380.1 83,383.9 87.1,384.5 84.1,387.4 84.8,391.4 81.2,389.5 77.5,391.4 78.2,387.4 75.2,384.5   79.3,383.9 "/>
<line class="st27" x1="76.8" y1="374.7" x2="74.8" y2="370.6"/>
<line class="st27" x1="84.6" y1="377" x2="86.2" y2="373.4"/>
<polyline class="st31" points="234,76.6 238,72.6 242,76.6 "/>
<line class="st31" x1="238" y1="81.6" x2="238" y2="72.6"/>
<path class="st1" d="M382.5,67.1c-2.2-1.6-4.3-1.6-4.3-1.6l-0.2,0.2c2.6,0.8,3.8,1.9,3.8,1.9c-1.6-0.9-3.2-1.3-4.6-1.5  c-1.1-0.1-2.2-0.1-3.1,0c-0.1,0-0.2,0-0.3,0c-0.5,0.1-1.8,0.2-3.5,1c-0.6,0.2-0.9,0.4-0.9,0.4s1.3-1.2,4-2l-0.2-0.2  c0,0-2.1,0-4.3,1.6c0,0-2.2,4-2.2,8.9c0,0,1.3,2.2,4.7,2.3c0,0,0.6-0.7,1-1.3c-1.9-0.6-2.7-1.8-2.7-1.8s0.2,0.1,0.4,0.3  c0,0,0,0,0.1,0c0,0,0.1,0,0.1,0.1c0.4,0.2,0.8,0.4,1.1,0.5c0.6,0.3,1.4,0.5,2.3,0.7c1.2,0.2,2.5,0.3,4,0c0.7-0.1,1.5-0.3,2.2-0.7  c0.5-0.2,1.1-0.5,1.8-0.9c0,0-0.8,1.2-2.8,1.8c0.5,0.6,1,1.2,1,1.2c3.4-0.1,4.7-2.3,4.7-2.3C384.7,71,382.5,67.1,382.5,67.1z   M372.9,74.5c-0.9,0-1.6-0.8-1.6-1.7c0-0.9,0.7-1.7,1.6-1.7s1.6,0.8,1.6,1.7S373.8,74.5,372.9,74.5z M378.5,74.5  c-0.9,0-1.6-0.8-1.6-1.7c0-0.9,0.7-1.7,1.6-1.7s1.6,0.8,1.6,1.7S379.4,74.5,378.5,74.5z"/>
<g>
	<path class="st9" d="M367.8,76.9c0-4.9,2.2-8.9,2.2-8.9c2.2-1.6,4.3-1.6,4.3-1.6l0.2,0.2c-2.8,0.8-4,2-4,2s0.3-0.2,0.9-0.4   c1.6-0.7,2.9-0.9,3.5-1c0.1,0,0.2,0,0.3,0c0.9-0.1,2-0.2,3.1,0c1.5,0.2,3,0.6,4.6,1.5c0,0-1.2-1.2-3.8-1.9l0.1-0.1   c-0.7-0.2-1.3-0.3-1.9-0.4c-1.1-0.1-2.2-0.1-3.1,0c-0.1,0-0.2,0-0.3,0c-0.5,0.1-1.8,0.2-3.5,1c-0.6,0.2-0.9,0.4-0.9,0.4   s1.3-1.2,4-2l-0.2-0.2c0,0-2.1,0-4.3,1.6c0,0-2.2,4-2.2,8.9c0,0,0.3,0.6,1.1,1.1C367.9,77,367.8,76.9,367.8,76.9z"/>
	<path class="st9" d="M375.5,73.8c0-0.8-0.5-1.4-1.1-1.6c0.1,0.2,0.1,0.4,0.1,0.6c0,0.9-0.7,1.7-1.6,1.7c-0.2,0-0.3,0-0.5-0.1   c0.2,0.6,0.8,1.1,1.5,1.1C374.8,75.5,375.5,74.7,375.5,73.8z"/>
	<path class="st9" d="M382.8,67.6c-0.2-0.3-0.3-0.5-0.3-0.5c-2.2-1.6-4.3-1.6-4.3-1.6l-0.2,0.2c0.9,0.3,1.6,0.6,2.2,0.9   C380.8,66.7,381.8,67,382.8,67.6z"/>
	<path class="st9" d="M371.5,76.6c0,0-0.1,0-0.1-0.1c0,0,0,0-0.1,0l0,0c-0.3-0.2-0.4-0.3-0.4-0.3s0.4,0.6,1.4,1.2   c0.1-0.1,0.2-0.2,0.3-0.4C372.2,76.9,371.8,76.7,371.5,76.6z"/>
	<path class="st9" d="M380.1,78c2-0.6,2.8-1.8,2.8-1.8c-0.6,0.4-1.2,0.7-1.8,0.9c-0.5,0.2-1,0.4-1.5,0.5c0.3,0.4,0.5,0.6,0.5,0.6   c0.1,0,0.1,0,0.2,0C380.2,78.1,380.1,78.1,380.1,78z"/>
	<path class="st9" d="M380,72.2c0.1,0.2,0.1,0.4,0.1,0.6c0,0.9-0.7,1.7-1.6,1.7c-0.2,0-0.3,0-0.5-0.1c0.2,0.6,0.8,1.1,1.5,1.1   c0.9,0,1.6-0.8,1.6-1.7C381.1,73,380.6,72.4,380,72.2z"/>
</g>
<path class="st1" d="M259.3,75.2h-1.6c-0.4,0-0.7,0.3-0.7,0.7v4.6c0,0.4,0.3,0.7,0.7,0.7h1.6c0.4,0,0.7-0.3,0.7-0.7v-4.6  C260,75.5,259.7,75.2,259.3,75.2z M258.5,80.2c-0.3,0-0.5-0.2-0.5-0.5s0.2-0.5,0.5-0.5s0.5,0.2,0.5,0.5S258.8,80.2,258.5,80.2z"/>
<g>
	<g>
		<path class="st0" d="M288.8,75.9c-0.1-0.3-0.4-0.5-0.7-0.6c-0.6-0.2-1.2-0.3-1.8-0.3c-0.4,0-0.9,0.1-1.3,0    c-1.5-0.2,1.6-3.4-0.2-4.9c-0.2-0.2-0.6-0.1-0.7,0.2c-0.7,1.6-1.5,2.9-3,4.8c0,2,0,4,0.1,6c1.7,0.6,1.5,0.9,4.2,0.9    c0.7,0,1.5-0.1,2.1-0.4s0.8-1,1-1.6c0.2-0.7,0.3-1.4,0.5-2.2C289,77.2,289.1,76.5,288.8,75.9z"/>
	</g>
</g>
<path class="st0" d="M279.3,75.2h-1.6c-0.4,0-0.7,0.3-0.7,0.7v4.6c0,0.4,0.3,0.7,0.7,0.7h1.6c0.4,0,0.7-0.3,0.7-0.7v-4.6  C280,75.5,279.7,75.2,279.3,75.2z M278.5,80.2c-0.3,0-0.5-0.2-0.5-0.5s0.2-0.5,0.5-0.5s0.5,0.2,0.5,0.5S278.8,80.2,278.5,80.2z"/>
<g>
	<g>
		<path class="st32" d="M103.5,136h17c0.8,0,1.5-0.7,1.5-1.5s-0.7-1.5-1.5-1.5h-17c-0.8,0-1.5,0.7-1.5,1.5S102.7,136,103.5,136z     M120.5,141h-17c-0.8,0-1.5,0.7-1.5,1.5s0.7,1.5,1.5,1.5h17c0.8,0,1.5-0.7,1.5-1.5S121.3,141,120.5,141z M120.5,149h-17    c-0.8,0-1.5,0.7-1.5,1.5s0.7,1.5,1.5,1.5h17c0.8,0,1.5-0.7,1.5-1.5S121.3,149,120.5,149z"/>
	</g>
</g>
<path class="st32" d="M150.8,143.2l-3,3c-1.7,1.7-4.3,1.7-6,0c-0.3-0.3-0.5-0.6-0.6-0.9l1.4-1.4c0.1-0.1,0.1-0.1,0.2-0.2  c0.1,0.3,0.3,0.6,0.5,0.9c0.8,0.8,2.2,0.8,3,0l3-3c0.8-0.8,0.8-2.2,0-3s-2.2-0.8-3,0l-1.1,1.1c-0.9-0.3-1.8-0.4-2.7-0.3l2.3-2.3  c1.7-1.7,4.3-1.7,6,0C152.4,138.9,152.4,141.6,150.8,143.2z M142.8,148.2l-1.1,1.1c-0.8,0.8-2.2,0.8-3,0s-0.8-2.2,0-3l3-3  c0.8-0.8,2.2-0.8,3,0c0.3,0.3,0.4,0.6,0.5,0.9c0.1,0,0.2-0.1,0.2-0.1l1.4-1.4c-0.2-0.3-0.4-0.6-0.6-0.9c-1.7-1.7-4.3-1.7-6,0l-3,3  c-1.7,1.7-1.7,4.3,0,6s4.3,1.7,6,0l2.3-2.3C144.6,148.6,143.7,148.5,142.8,148.2z"/>
<path class="st1" d="M298.1,7.9c0-1.5-1.2-2.8-2.8-2.8c-0.8,0-1.5,0.3-2,0.9c-0.9-0.4-1.9-0.7-3-0.8l1-3.1l1.2,0.5v0.1  c0,1,0.8,1.7,1.7,1.7s1.7-0.8,1.7-1.7S295.1,1,294.2,1c-0.5,0-0.9,0.2-1.2,0.5l-2.4-1l-1.5,4.6l0,0c-1.6,0-3.1,0.3-4.3,0.9  c-0.5-0.5-1.2-0.9-2-0.9c-1.5,0-2.8,1.2-2.8,2.8c0,1,0.6,1.9,1.4,2.4v0.1c0,2.9,3.4,5.3,7.7,5.3c4.3,0,7.7-2.4,7.7-5.3v-0.1  C297.6,9.8,298.1,8.9,298.1,7.9z M285.5,10.7c-0.6,0-1.2-0.5-1.2-1.2c0-0.6,0.5-1.2,1.2-1.2c0.6,0,1.2,0.5,1.2,1.2  S286.2,10.7,285.5,10.7z M291.3,12.9c-0.6,0.6-1.4,0.9-2.2,0.9c-0.8,0-1.6-0.3-2.2-0.9c-0.2-0.2-0.2-0.5,0-0.6  c0.2-0.2,0.5-0.2,0.6,0c0.4,0.4,1,0.7,1.6,0.7s1.1-0.2,1.6-0.7c0.2-0.2,0.5-0.2,0.6,0C291.4,12.4,291.4,12.7,291.3,12.9z   M292.6,10.7c-0.6,0-1.2-0.5-1.2-1.2c0-0.6,0.5-1.2,1.2-1.2c0.6,0,1.2,0.5,1.2,1.2C293.8,10.2,293.3,10.7,292.6,10.7z"/>
<g>
	<path class="st9" d="M293.8,11.9c0.6,0,1.2-0.5,1.2-1.2c0-0.6-0.5-1.2-1.2-1.2l0,0c0,0.6-0.5,1.1-1.2,1.2l0,0   C292.6,11.3,293.1,11.9,293.8,11.9z"/>
	<path class="st9" d="M290.2,15c0.8,0,1.6-0.3,2.2-0.9c0.2-0.2,0.2-0.5,0-0.6c-0.2-0.2-0.5-0.2-0.6,0c-0.4,0.4-1,0.7-1.6,0.7   c-0.4,0-0.8-0.1-1.1-0.3H289c-0.4,0-0.8-0.1-1.1-0.2c-0.1,0.2-0.1,0.3,0.1,0.4C288.6,14.7,289.4,15,290.2,15z"/>
	<path class="st9" d="M286.7,9.5L286.7,9.5c0,0.6-0.5,1.1-1.2,1.2l0,0c0,0.6,0.5,1.2,1.2,1.2c0.6,0,1.2-0.5,1.2-1.2   C287.9,10,287.4,9.5,286.7,9.5z"/>
	<path class="st9" d="M295.4,5.6c-0.4,0-0.7-0.1-1-0.3c-0.4,0.2-0.7,0.4-1,0.7c-0.5-0.2-1-0.4-1.6-0.5l-0.3,0.9   c1.1,0.1,2.1,0.4,3,0.8c0.5-0.5,1.2-0.9,2-0.9c0.5,0,0.9,0.1,1.3,0.3c-0.3-0.6-0.8-1.1-1.5-1.3C296.1,5.5,295.7,5.6,295.4,5.6z"/>
	<path class="st9" d="M282.5,11.6v-0.1c-0.8-0.5-1.4-1.4-1.4-2.4c0-1.5,1.2-2.8,2.8-2.8c0.8,0,1.5,0.3,2,0.9   c1.2-0.6,2.7-0.9,4.3-0.9l0,0l0.3-1c-0.1,0-0.2,0-0.3-0.1l1-3.1l0.3,0.1l0.2-0.6l2.4,1c0.3-0.3,0.8-0.5,1.2-0.5   c0.2,0,0.3,0,0.5,0.1C295.6,1.5,295,1,294.2,1c-0.5,0-0.9,0.2-1.2,0.5l-2.4-1l-1.5,4.6l0,0c-1.6,0-3.1,0.3-4.3,0.9   c-0.5-0.5-1.2-0.9-2-0.9c-1.5,0-2.8,1.2-2.8,2.8c0,1,0.6,1.9,1.4,2.4v0.1c0,1.4,0.8,2.6,2,3.5C282.8,13.2,282.5,12.4,282.5,11.6z"/>
	<path class="st9" d="M292.6,3.3c0.2,0.5,0.6,0.9,1.1,1.1c0-0.2-0.1-0.3-0.1-0.5V3.8L292.6,3.3z"/>
</g>
<path id="Shape_1_" class="st0" d="M349.8,5.5c0-0.2-0.1-0.4-0.2-0.5l-1.4-1.7V3h4.3l3.4,7.3l2.9-7.3h4.1v0.3l-1.2,1.1  c-0.1,0.1-0.2,0.2-0.1,0.3v8.4c0,0.1,0,0.3,0.1,0.3l1.2,1.1v0.3H357v-0.3l1.2-1.2c0.1-0.1,0.1-0.2,0.1-0.3V6.4l-3.4,8.5h-0.5  l-3.9-8.5v5.7c0,0.2,0,0.5,0.2,0.7l1.6,1.9V15H348v-0.3l1.6-1.9c0.2-0.2,0.2-0.4,0.2-0.7L349.8,5.5L349.8,5.5z"/>
<path id="Shape_2_" class="st0" d="M219.9,137c0-0.3-0.2-0.6-0.3-0.8l-2.3-2.7V133h6.9l5.5,11.8l4.7-11.8h6.6v0.5l-1.9,1.8  c-0.2,0.2-0.3,0.3-0.2,0.5v13.5c0,0.2,0,0.5,0.2,0.5l1.9,1.8v0.5h-9.5v-0.5l1.9-1.9c0.2-0.2,0.2-0.3,0.2-0.5v-10.6l-5.5,13.7h-0.8  l-6.3-13.7v9.2c0,0.3,0,0.8,0.3,1.1l2.6,3.1v0.5H217V152l2.6-3.1c0.3-0.3,0.3-0.6,0.3-1.1L219.9,137L219.9,137z"/>
<path id="Shape" class="st1" d="M348.8,4.5c0-0.2-0.1-0.4-0.2-0.5l-1.4-1.7V2h4.3l3.4,7.3l2.9-7.3h4.1v0.3l-1.2,1.1  c-0.1,0.1-0.2,0.2-0.1,0.3v8.4c0,0.1,0,0.3,0.1,0.3l1.2,1.1v0.3H356v-0.3l1.2-1.2c0.1-0.1,0.1-0.2,0.1-0.3V5.4l-3.4,8.5h-0.5  l-3.9-8.5v5.7c0,0.2,0,0.5,0.2,0.7l1.6,1.9V14H347v-0.3l1.6-1.9c0.2-0.2,0.2-0.4,0.2-0.7L348.8,4.5L348.8,4.5z"/>
<g>
	<polygon class="st9" points="355.6,9.8 357.4,5.4 357.4,6.6 358.8,3 361.2,3 362,2.3 362,2 357.8,2 355.2,8.8  "/>
	<path class="st9" d="M358.3,13.5c0.1-0.1,0.1-0.2,0.1-0.3V6.4l-1,2.5v3.3c0,0.2,0,0.2-0.1,0.3l-1.2,1.2V14h1.8L358.3,13.5z"/>
	<path class="st9" d="M361.8,13.5l0.2,0.2l0,0L361.8,13.5C361.7,13.5,361.8,13.5,361.8,13.5z"/>
	<path class="st9" d="M349.6,12.7c0.2-0.2,0.2-0.4,0.2-0.7v-0.5c-0.1-0.1-0.1-0.3-0.1-0.5V5.4l0.1,0.2V5.5c0-0.2-0.1-0.4-0.2-0.5   l-1.4-1.7V3h3.8l-0.5-1h-4.3v0.3l1.4,1.7c0.1,0.1,0.2,0.3,0.2,0.5v6.6c0,0.2,0,0.5-0.2,0.7l-1.6,1.9V14h1.6L349.6,12.7z"/>
	<polygon class="st9" points="350.7,6.4 350.7,7.5 353.6,13.9 354.1,13.9 354.1,13.8  "/>
</g>
<g>
	<path class="st0" d="M194.8,135c-0.2-0.2-0.5-0.3-0.7-0.3s-0.5,0.1-0.7,0.3l-7.9,7.9c-0.2,0.2-0.4,0.2-0.6,0.2s-0.4-0.1-0.6-0.2   l-7.9-7.9c-0.2-0.2-0.5-0.3-0.7-0.3c-0.3,0-0.5,0.1-0.7,0.3c-0.4,0.4-0.4,1.1,0,1.5l4.9,5l-4.9,5c-0.4,0.4-0.4,1.1,0,1.5   c0.2,0.2,0.5,0.3,0.7,0.3c0.3,0,0.5-0.1,0.7-0.3l4.9-5c0,0,1.5,1.6,1.8,1.8c0.4,0.4,1,0.7,1.7,0.7s1.3-0.3,1.7-0.7   c0.3-0.3,1.8-1.9,1.8-1.9l4.9,5c0.2,0.2,0.5,0.3,0.7,0.3s0.5-0.1,0.7-0.3c0.4-0.4,0.4-1.1,0-1.5l-4.9-5l4.9-5   C195.2,136.1,195.2,135.4,194.8,135z"/>
	<path class="st0" d="M195.7,130h-21.5c-2.3,0-4.2,1.9-4.2,4.2v14.7c0,2.3,1.9,4.2,4.2,4.2h21.5c2.3,0,4.2-1.9,4.2-4.2v-14.7   C199.8,131.9,198,130,195.7,130z M197.8,148.8c0,1.2-1,2.2-2.2,2.2h-21.5c-1.2,0-2.2-1-2.2-2.2v-14.7c0-1.2,1-2.2,2.2-2.2h21.5   c1.2,0,2.2,1,2.2,2.2V148.8z"/>
</g>
<path class="st33" d="M321.9,74.6c0-3.1-2.9-5.6-6.4-5.6s-6.4,2.5-6.4,5.6c0,2.8,2.4,5.1,5.6,5.5c0.3,1.4,1.5,2.4,3,2.4  c0.8,0,1.6-0.3,2.1-0.9c-0.8-0.4-1.3-1.2-1.5-2.1C320.3,78.7,321.9,76.8,321.9,74.6z"/>
<circle class="st0" cx="315.4" cy="74.5" r="0.9"/>
<circle class="st0" cx="318.4" cy="74.5" r="0.9"/>
<circle class="st0" cx="312.4" cy="74.5" r="0.9"/>
<polygon class="st0" points="321,97 321,115 332,106 "/>
<path class="st34" d="M385.5,106c-0.2,0-0.5-0.1-0.7-0.3l-4.5-4c-0.4-0.4-0.5-1-0.1-1.4s1-0.5,1.4-0.1l3.8,3.4l3.8-3.4  c0.4-0.4,1-0.3,1.4,0.1s0.3,1-0.1,1.4l-4.5,4C386,105.9,385.7,106,385.5,106z"/>
<g>
	<g>
		<g>
			<path class="st0" d="M347.9,68c0.2,0,0.3,0.1,0.4,0.2c2.8,2.4-2.1,7.4,0.3,7.8c0.2,0.1,0.4,0.1,0.7,0.1c0.5,0,1-0.1,1.4-0.1     c0.9,0,1.9,0.2,2.8,0.5c0.5,0.2,0.9,0.5,1.1,0.9c0.5,0.9,0.3,2.1,0.3,3c-0.3,1.3-0.5,2.4-0.8,3.5c-0.3,0.9-0.6,2.1-1.6,2.5     c-0.9,0.5-2.2,0.6-3.3,0.6c-4.3,0-4-0.5-6.6-1.4c-0.2-3.2-0.2-6.3-0.2-9.5c2.4-3,3.6-5.1,4.7-7.6C347.3,68.2,347.6,68,347.9,68      M347.9,66.3L347.9,66.3c-1,0-2,0.6-2.3,1.6c-1.1,2.4-2.3,4.4-4.5,7.2c-0.2,0.3-0.4,0.7-0.4,1.1c0,3.1,0,6.4,0.2,9.6     c0,0.7,0.5,1.3,1.2,1.6c0.6,0.2,1.1,0.4,1.5,0.6c1.5,0.6,2.3,0.9,5.8,0.9c1.1,0,2.8-0.1,4.1-0.8c1.5-0.8,2.1-2.3,2.4-3.4l0.1-0.2     c0,0,0,0,0-0.1c0.2-0.7,0.3-1.4,0.5-2c0.1-0.5,0.2-1,0.3-1.5c0-0.1,0.1-0.3,0.1-0.4c0-0.2,0-0.3,0-0.5c0-0.9,0.1-2-0.5-3.2     c-0.3-0.9-1.1-1.6-2.2-1.9c-1.1-0.4-2.3-0.6-3.4-0.6c-0.2,0-0.4,0-0.7,0c0-0.1,0.1-0.2,0.1-0.3c0.7-1.8,1.8-4.9-0.6-7     C349.1,66.5,348.5,66.3,347.9,66.3L347.9,66.3z"/>
		</g>
	</g>
</g>
<g>
	<path class="st0" d="M339.6,76.2c0.6,0,1.1,0.5,1.1,1.1v7.3c0,0.6-0.5,1.1-1.1,1.1h-2.5c-0.6,0-1.1-0.5-1.1-1.1v-7.3   c0-0.6,0.5-1.1,1.1-1.1H339.6 M338.4,84.2c0.5,0,0.8-0.3,0.8-0.8s-0.3-0.8-0.8-0.8s-0.8,0.3-0.8,0.8S337.9,84.2,338.4,84.2    M339.6,74.5h-2.5c-1.6,0-2.9,1.3-2.9,2.9v7.3c0,1.6,1.3,2.9,2.9,2.9h2.5c1.6,0,2.9-1.3,2.9-2.9v-7.3   C342.5,75.7,341.2,74.5,339.6,74.5L339.6,74.5z"/>
</g>
<path class="st31" d="M378.5,125c9.7,0,17.5,7.8,17.5,17.5s-7.8,17.5-17.5,17.5s-17.5-7.8-17.5-17.5S368.8,125,378.5,125z"/>
<path class="st31" d="M371.7,136l13,13"/>
<path class="st31" d="M371.7,149l13-13"/>
<g>
	<polygon class="st35" points="384,184 376,184 376,176 379,176 379,175 376,175 375,175 375,176 375,184 375,185 376,185 384,185    385,185 385,184 385,181 384,181  "/>
	<polygon class="st35" points="384,175 381,175 381,176 383.3,176 379.6,179.6 380.4,180.4 384,176.7 384,179 385,179 385,176    385,175  "/>
</g>
<line class="st36" x1="163" y1="73" x2="154" y2="73"/>
<line class="st36" x1="163" y1="78" x2="158" y2="78"/>
<line class="st36" x1="163" y1="83" x2="161" y2="83"/>
<line class="st36" x1="275.9" y1="151" x2="287" y2="151"/>
<line class="st36" x1="281.9" y1="145.9" x2="287" y2="145.9"/>
<polygon class="st36" points="270.6,150.8 264,151 264.2,144.4 273.8,134.8 276.6,132 282.9,138.4 "/>
<line class="st37" x1="280.2" y1="141.2" x2="273.8" y2="134.7"/>
<g>
	<path class="st38" d="M375,201c13.2,0,24,10.8,24,24s-10.8,24-24,24s-24-10.8-24-24S361.8,201,375,201 M375,200   c-13.8,0-25,11.2-25,25s11.2,25,25,25s25-11.2,25-25S388.8,200,375,200L375,200z"/>
</g>
<g>
	<path class="st39" d="M325,204c11.6,0,21,9.4,21,21s-9.4,21-21,21s-21-9.4-21-21S313.4,204,325,204 M325,200c-13.8,0-25,11.2-25,25   s11.2,25,25,25s25-11.2,25-25S338.8,200,325,200L325,200z"/>
</g>
<path class="st40" d="M317.3,232.9l15.5-15.8"/>
<g>
	<path class="st41" d="M325,254c11.6,0,21,9.4,21,21s-9.4,21-21,21s-21-9.4-21-21S313.4,254,325,254 M325,250c-13.8,0-25,11.2-25,25   s11.2,25,25,25s25-11.2,25-25S338.8,250,325,250L325,250z"/>
</g>
<path class="st42" d="M316.4,274.6l6.1,6.2L335,268"/>
<line class="st40" x1="317.1" y1="217.3" x2="332.9" y2="232.7"/>
<g>
	<path class="st38" d="M375,215.8c7.9,0,14.7,7.1,16.6,9.2c-1.9,2.2-8.7,9.2-16.6,9.2s-14.7-7.1-16.6-9.2   C360.3,222.8,367.1,215.8,375,215.8 M375,214.8c-9.9,0-18,10.2-18,10.2s8,10.2,18,10.2s18-10.2,18-10.2S384.9,214.8,375,214.8   L375,214.8z"/>
</g>
<g>
	<path class="st38" d="M375,216.3c4.8,0,8.7,3.9,8.7,8.7s-3.9,8.7-8.7,8.7s-8.7-3.9-8.7-8.7S370.2,216.3,375,216.3 M375,215.3   c-5.4,0-9.7,4.3-9.7,9.7s4.3,9.7,9.7,9.7s9.7-4.3,9.7-9.7S380.4,215.3,375,215.3L375,215.3z"/>
</g>
<g>
	<circle class="st38" cx="375" cy="225" r="5"/>
</g>
<g>
	<circle class="st0" cx="373.3" cy="223.3" r="1.7"/>
</g>
<g>
	<path class="st43" d="M375,254c11.6,0,21,9.4,21,21s-9.4,21-21,21s-21-9.4-21-21c0-4.8,1.6-9.3,4.5-13c0.8-1,1.6-1.9,2.5-2.7   c0.6-0.5,1.3-1.1,1.9-1.5s1.3-0.9,2-1.2C368,254.9,371.5,254,375,254 M375,250c-4.3,0-8.4,1.1-12,3c-0.8,0.4-1.6,0.9-2.4,1.5   s-1.6,1.2-2.3,1.8c-1.1,1-2.1,2-3,3.2c-3.4,4.3-5.4,9.6-5.4,15.5c0,13.8,11.2,25,25,25s25-11.2,25-25C400,261.2,388.8,250,375,250   L375,250z"/>
</g>
<g>
	<path class="st43" d="M375,272c-1.7,0-3,1.3-3,3s1.3,3,3,3s3-1.3,3-3S376.7,272,375,272L375,272z"/>
</g>
<g>
	<path class="st43" d="M365,272c-1.7,0-3,1.3-3,3s1.3,3,3,3s3-1.3,3-3S366.7,272,365,272L365,272z"/>
</g>
<g>
	<path class="st43" d="M385,272c-1.7,0-3,1.3-3,3s1.3,3,3,3s3-1.3,3-3S386.7,272,385,272L385,272z"/>
</g>
<path class="st41" d="M360,90c-6.6,0-12,5.4-12,12s5.4,12,12,12s12-5.4,12-12S366.6,90,360,90z M360,112c-5.5,0-10-4.5-10-10  s4.5-10,10-10s10,4.5,10,10S365.5,112,360,112z"/>
<circle class="st41" cx="360" cy="102" r="8"/>
<path class="st44" d="M355.4,101.6l3.3,3.4l5.7-6"/>
</svg>